<mxfile host="app.diagrams.net" agent="Mozilla/5.0 (Macintosh; Intel Mac OS X 10_15_7) AppleWebKit/537.36 (KHTML, like Gecko) Chrome/129.0.0.0 Safari/537.36" version="24.7.16" pages="5">
  <diagram name="Use Case Diagram" id="52N6EU_QWkr7hJt_THOe">
    <mxGraphModel dx="1843" dy="618" grid="1" gridSize="10" guides="1" tooltips="1" connect="1" arrows="1" fold="1" page="1" pageScale="1" pageWidth="850" pageHeight="1100" math="0" shadow="0">
      <root>
        <mxCell id="0" />
        <mxCell id="1" parent="0" />
        <mxCell id="VD7d8r_EHNvj9PslrJd1-1" value="" style="rounded=0;whiteSpace=wrap;html=1;movable=0;resizable=0;rotatable=0;deletable=0;editable=0;locked=1;connectable=0;fillColor=#dae8fc;strokeColor=#6c8ebf;" vertex="1" parent="1">
          <mxGeometry x="-590" y="5" width="400" height="1095" as="geometry" />
        </mxCell>
        <mxCell id="VD7d8r_EHNvj9PslrJd1-2" value="&lt;font style=&quot;font-size: 15px;&quot;&gt;&lt;b&gt;E-Commerce Order System&lt;/b&gt;&lt;/font&gt;" style="text;html=1;align=center;verticalAlign=middle;whiteSpace=wrap;rounded=0;" vertex="1" parent="1">
          <mxGeometry x="-491.25" y="9" width="202.5" height="30" as="geometry" />
        </mxCell>
        <mxCell id="VD7d8r_EHNvj9PslrJd1-14" style="rounded=0;orthogonalLoop=1;jettySize=auto;html=1;endArrow=none;endFill=0;entryX=0;entryY=0.5;entryDx=0;entryDy=0;" edge="1" parent="1" source="VD7d8r_EHNvj9PslrJd1-3" target="VD7d8r_EHNvj9PslrJd1-9">
          <mxGeometry relative="1" as="geometry" />
        </mxCell>
        <mxCell id="VD7d8r_EHNvj9PslrJd1-62" style="rounded=0;orthogonalLoop=1;jettySize=auto;html=1;entryX=0;entryY=0.5;entryDx=0;entryDy=0;endArrow=none;endFill=0;" edge="1" parent="1" source="VD7d8r_EHNvj9PslrJd1-3" target="VD7d8r_EHNvj9PslrJd1-59">
          <mxGeometry relative="1" as="geometry" />
        </mxCell>
        <mxCell id="VD7d8r_EHNvj9PslrJd1-111" style="rounded=0;orthogonalLoop=1;jettySize=auto;html=1;entryX=0;entryY=0.5;entryDx=0;entryDy=0;endArrow=none;endFill=0;" edge="1" parent="1" source="VD7d8r_EHNvj9PslrJd1-3" target="VD7d8r_EHNvj9PslrJd1-107">
          <mxGeometry relative="1" as="geometry" />
        </mxCell>
        <mxCell id="VD7d8r_EHNvj9PslrJd1-3" value="Customer" style="shape=umlActor;verticalLabelPosition=bottom;verticalAlign=top;html=1;outlineConnect=0;strokeWidth=4;" vertex="1" parent="1">
          <mxGeometry x="-760" y="473" width="75" height="150" as="geometry" />
        </mxCell>
        <mxCell id="VD7d8r_EHNvj9PslrJd1-9" value="&lt;font style=&quot;font-size: 10px;&quot;&gt;Browse Products&lt;/font&gt;" style="ellipse;whiteSpace=wrap;html=1;" vertex="1" parent="1">
          <mxGeometry x="-445" y="193" width="110" height="50" as="geometry" />
        </mxCell>
        <mxCell id="VD7d8r_EHNvj9PslrJd1-15" style="rounded=0;orthogonalLoop=1;jettySize=auto;html=1;endArrow=none;endFill=0;exitX=0;exitY=0.5;exitDx=0;exitDy=0;" edge="1" parent="1" source="VD7d8r_EHNvj9PslrJd1-10" target="VD7d8r_EHNvj9PslrJd1-3">
          <mxGeometry relative="1" as="geometry" />
        </mxCell>
        <mxCell id="VD7d8r_EHNvj9PslrJd1-10" value="&lt;font style=&quot;font-size: 10px;&quot;&gt;Add To Cart&lt;/font&gt;" style="ellipse;whiteSpace=wrap;html=1;" vertex="1" parent="1">
          <mxGeometry x="-445.5" y="350" width="110" height="50" as="geometry" />
        </mxCell>
        <mxCell id="VD7d8r_EHNvj9PslrJd1-16" style="rounded=0;orthogonalLoop=1;jettySize=auto;html=1;endArrow=none;endFill=0;exitX=0;exitY=0.5;exitDx=0;exitDy=0;" edge="1" parent="1" source="VD7d8r_EHNvj9PslrJd1-11" target="VD7d8r_EHNvj9PslrJd1-3">
          <mxGeometry relative="1" as="geometry" />
        </mxCell>
        <mxCell id="VD7d8r_EHNvj9PslrJd1-11" value="&lt;font style=&quot;font-size: 10px;&quot;&gt;Checkout&lt;/font&gt;" style="ellipse;whiteSpace=wrap;html=1;" vertex="1" parent="1">
          <mxGeometry x="-445" y="580" width="110" height="50" as="geometry" />
        </mxCell>
        <mxCell id="VD7d8r_EHNvj9PslrJd1-17" style="rounded=0;orthogonalLoop=1;jettySize=auto;html=1;endArrow=none;endFill=0;exitX=0;exitY=0.5;exitDx=0;exitDy=0;" edge="1" parent="1" source="VD7d8r_EHNvj9PslrJd1-12" target="VD7d8r_EHNvj9PslrJd1-3">
          <mxGeometry relative="1" as="geometry" />
        </mxCell>
        <mxCell id="VD7d8r_EHNvj9PslrJd1-12" value="&lt;font style=&quot;font-size: 10px;&quot;&gt;Track Order&lt;/font&gt;" style="ellipse;whiteSpace=wrap;html=1;" vertex="1" parent="1">
          <mxGeometry x="-445" y="640" width="110" height="50" as="geometry" />
        </mxCell>
        <mxCell id="VD7d8r_EHNvj9PslrJd1-18" style="rounded=0;orthogonalLoop=1;jettySize=auto;html=1;endArrow=none;endFill=0;exitX=0;exitY=0.5;exitDx=0;exitDy=0;" edge="1" parent="1" source="VD7d8r_EHNvj9PslrJd1-13" target="VD7d8r_EHNvj9PslrJd1-3">
          <mxGeometry relative="1" as="geometry" />
        </mxCell>
        <mxCell id="VD7d8r_EHNvj9PslrJd1-13" value="&lt;font style=&quot;font-size: 10px;&quot;&gt;Handle Refunds&lt;/font&gt;" style="ellipse;whiteSpace=wrap;html=1;" vertex="1" parent="1">
          <mxGeometry x="-445" y="703" width="110" height="50" as="geometry" />
        </mxCell>
        <mxCell id="VD7d8r_EHNvj9PslrJd1-33" style="rounded=0;orthogonalLoop=1;jettySize=auto;html=1;entryX=1;entryY=0.5;entryDx=0;entryDy=0;endArrow=none;endFill=0;" edge="1" parent="1" source="VD7d8r_EHNvj9PslrJd1-19" target="VD7d8r_EHNvj9PslrJd1-12">
          <mxGeometry relative="1" as="geometry" />
        </mxCell>
        <mxCell id="VD7d8r_EHNvj9PslrJd1-34" style="rounded=0;orthogonalLoop=1;jettySize=auto;html=1;entryX=0.946;entryY=0.235;entryDx=0;entryDy=0;endArrow=none;endFill=0;entryPerimeter=0;" edge="1" parent="1" source="VD7d8r_EHNvj9PslrJd1-19" target="VD7d8r_EHNvj9PslrJd1-13">
          <mxGeometry relative="1" as="geometry" />
        </mxCell>
        <mxCell id="VD7d8r_EHNvj9PslrJd1-35" style="rounded=0;orthogonalLoop=1;jettySize=auto;html=1;entryX=1;entryY=0.5;entryDx=0;entryDy=0;endArrow=none;endFill=0;" edge="1" parent="1" source="VD7d8r_EHNvj9PslrJd1-19" target="VD7d8r_EHNvj9PslrJd1-31">
          <mxGeometry relative="1" as="geometry" />
        </mxCell>
        <mxCell id="VD7d8r_EHNvj9PslrJd1-37" style="rounded=0;orthogonalLoop=1;jettySize=auto;html=1;endArrow=none;endFill=0;entryX=1;entryY=0.5;entryDx=0;entryDy=0;" edge="1" parent="1" source="VD7d8r_EHNvj9PslrJd1-19" target="VD7d8r_EHNvj9PslrJd1-36">
          <mxGeometry relative="1" as="geometry" />
        </mxCell>
        <mxCell id="VD7d8r_EHNvj9PslrJd1-110" style="rounded=0;orthogonalLoop=1;jettySize=auto;html=1;entryX=1;entryY=0.5;entryDx=0;entryDy=0;endArrow=none;endFill=0;" edge="1" parent="1" source="VD7d8r_EHNvj9PslrJd1-19" target="VD7d8r_EHNvj9PslrJd1-107">
          <mxGeometry relative="1" as="geometry" />
        </mxCell>
        <mxCell id="RKkOBL6d1enxIJ8Rntz_-12" style="rounded=0;orthogonalLoop=1;jettySize=auto;html=1;entryX=1;entryY=0.5;entryDx=0;entryDy=0;endArrow=none;endFill=0;" edge="1" parent="1" source="VD7d8r_EHNvj9PslrJd1-19" target="RKkOBL6d1enxIJ8Rntz_-1">
          <mxGeometry relative="1" as="geometry" />
        </mxCell>
        <mxCell id="VD7d8r_EHNvj9PslrJd1-19" value="Vendor/Seller" style="shape=umlActor;verticalLabelPosition=bottom;verticalAlign=top;html=1;outlineConnect=0;strokeWidth=4;" vertex="1" parent="1">
          <mxGeometry x="-130" y="279" width="75" height="150" as="geometry" />
        </mxCell>
        <mxCell id="VD7d8r_EHNvj9PslrJd1-22" style="rounded=0;orthogonalLoop=1;jettySize=auto;html=1;endArrow=none;endFill=0;exitX=0;exitY=0.5;exitDx=0;exitDy=0;" edge="1" parent="1" source="VD7d8r_EHNvj9PslrJd1-21" target="VD7d8r_EHNvj9PslrJd1-3">
          <mxGeometry relative="1" as="geometry" />
        </mxCell>
        <mxCell id="VD7d8r_EHNvj9PslrJd1-21" value="&lt;font style=&quot;font-size: 10px;&quot;&gt;Log-in&lt;/font&gt;" style="ellipse;whiteSpace=wrap;html=1;" vertex="1" parent="1">
          <mxGeometry x="-450" y="53" width="110" height="50" as="geometry" />
        </mxCell>
        <mxCell id="VD7d8r_EHNvj9PslrJd1-25" style="rounded=0;orthogonalLoop=1;jettySize=auto;html=1;dashed=1;endArrow=none;endFill=0;startArrow=open;startFill=0;exitX=0.5;exitY=0;exitDx=0;exitDy=0;entryX=0.807;entryY=0.884;entryDx=0;entryDy=0;entryPerimeter=0;" edge="1" parent="1" source="VD7d8r_EHNvj9PslrJd1-23" target="VD7d8r_EHNvj9PslrJd1-21">
          <mxGeometry relative="1" as="geometry" />
        </mxCell>
        <mxCell id="VD7d8r_EHNvj9PslrJd1-23" value="&lt;font style=&quot;font-size: 10px;&quot;&gt;Verify Credentials&lt;/font&gt;" style="ellipse;whiteSpace=wrap;html=1;" vertex="1" parent="1">
          <mxGeometry x="-380" y="133" width="100" height="30" as="geometry" />
        </mxCell>
        <mxCell id="VD7d8r_EHNvj9PslrJd1-24" value="&lt;font style=&quot;font-size: 10px;&quot;&gt;Change Password&lt;/font&gt;" style="ellipse;whiteSpace=wrap;html=1;" vertex="1" parent="1">
          <mxGeometry x="-480" y="133" width="91.5" height="30" as="geometry" />
        </mxCell>
        <mxCell id="VD7d8r_EHNvj9PslrJd1-27" value="&amp;lt;&amp;lt;include&amp;gt;&amp;gt;" style="text;html=1;align=center;verticalAlign=middle;whiteSpace=wrap;rounded=0;fontSize=8;" vertex="1" parent="1">
          <mxGeometry x="-360" y="103" width="70" height="10" as="geometry" />
        </mxCell>
        <mxCell id="VD7d8r_EHNvj9PslrJd1-28" style="rounded=0;orthogonalLoop=1;jettySize=auto;html=1;entryX=0.327;entryY=0.998;entryDx=0;entryDy=0;entryPerimeter=0;dashed=1;endArrow=open;endFill=0;" edge="1" parent="1" source="VD7d8r_EHNvj9PslrJd1-24" target="VD7d8r_EHNvj9PslrJd1-21">
          <mxGeometry relative="1" as="geometry" />
        </mxCell>
        <mxCell id="VD7d8r_EHNvj9PslrJd1-29" value="&amp;lt;&amp;lt;exclude&amp;gt;&amp;gt;" style="text;html=1;align=center;verticalAlign=middle;whiteSpace=wrap;rounded=0;fontSize=8;" vertex="1" parent="1">
          <mxGeometry x="-484" y="113" width="70" height="10" as="geometry" />
        </mxCell>
        <mxCell id="VD7d8r_EHNvj9PslrJd1-31" value="&lt;span style=&quot;font-size: 10px;&quot;&gt;View Sales Report&lt;/span&gt;" style="ellipse;whiteSpace=wrap;html=1;" vertex="1" parent="1">
          <mxGeometry x="-445" y="293" width="110" height="50" as="geometry" />
        </mxCell>
        <mxCell id="VD7d8r_EHNvj9PslrJd1-36" value="&lt;font style=&quot;font-size: 10px;&quot;&gt;Update Product&amp;nbsp;&lt;/font&gt;&lt;div&gt;&lt;font style=&quot;font-size: 10px;&quot;&gt;Listings&lt;/font&gt;&lt;/div&gt;" style="ellipse;whiteSpace=wrap;html=1;" vertex="1" parent="1">
          <mxGeometry x="-445" y="523" width="110" height="50" as="geometry" />
        </mxCell>
        <mxCell id="VD7d8r_EHNvj9PslrJd1-48" value="&lt;span style=&quot;font-size: 10px;&quot;&gt;See Total Items&lt;/span&gt;" style="ellipse;whiteSpace=wrap;html=1;" vertex="1" parent="1">
          <mxGeometry x="-499.5" y="425" width="85" height="30" as="geometry" />
        </mxCell>
        <mxCell id="VD7d8r_EHNvj9PslrJd1-49" style="rounded=0;orthogonalLoop=1;jettySize=auto;html=1;entryX=0.315;entryY=1.003;entryDx=0;entryDy=0;entryPerimeter=0;endArrow=open;endFill=0;dashed=1;" edge="1" parent="1" source="VD7d8r_EHNvj9PslrJd1-48" target="VD7d8r_EHNvj9PslrJd1-10">
          <mxGeometry relative="1" as="geometry" />
        </mxCell>
        <mxCell id="VD7d8r_EHNvj9PslrJd1-50" value="&amp;lt;&amp;lt;include&amp;gt;&amp;gt;" style="text;html=1;align=center;verticalAlign=middle;whiteSpace=wrap;rounded=0;fontSize=8;" vertex="1" parent="1">
          <mxGeometry x="-492" y="406" width="70" height="10" as="geometry" />
        </mxCell>
        <mxCell id="VD7d8r_EHNvj9PslrJd1-51" value="&lt;span style=&quot;font-size: 10px;&quot;&gt;Remove Items from cart&lt;/span&gt;" style="ellipse;whiteSpace=wrap;html=1;" vertex="1" parent="1">
          <mxGeometry x="-370.5" y="420" width="80" height="40" as="geometry" />
        </mxCell>
        <mxCell id="VD7d8r_EHNvj9PslrJd1-52" style="rounded=0;orthogonalLoop=1;jettySize=auto;html=1;entryX=0.632;entryY=0.997;entryDx=0;entryDy=0;entryPerimeter=0;dashed=1;endArrow=none;endFill=0;startArrow=open;startFill=0;" edge="1" parent="1" source="VD7d8r_EHNvj9PslrJd1-51" target="VD7d8r_EHNvj9PslrJd1-10">
          <mxGeometry relative="1" as="geometry" />
        </mxCell>
        <mxCell id="VD7d8r_EHNvj9PslrJd1-53" value="&amp;lt;&amp;lt;exclude&amp;gt;&amp;gt;" style="text;html=1;align=center;verticalAlign=middle;whiteSpace=wrap;rounded=0;fontSize=8;" vertex="1" parent="1">
          <mxGeometry x="-365.5" y="400" width="70" height="10" as="geometry" />
        </mxCell>
        <mxCell id="VD7d8r_EHNvj9PslrJd1-67" style="rounded=0;orthogonalLoop=1;jettySize=auto;html=1;entryX=1;entryY=0.5;entryDx=0;entryDy=0;endArrow=none;endFill=0;" edge="1" parent="1" source="VD7d8r_EHNvj9PslrJd1-54" target="VD7d8r_EHNvj9PslrJd1-63">
          <mxGeometry relative="1" as="geometry" />
        </mxCell>
        <mxCell id="VD7d8r_EHNvj9PslrJd1-68" style="rounded=0;orthogonalLoop=1;jettySize=auto;html=1;endArrow=none;endFill=0;entryX=1;entryY=0.5;entryDx=0;entryDy=0;" edge="1" parent="1" source="VD7d8r_EHNvj9PslrJd1-54" target="VD7d8r_EHNvj9PslrJd1-65">
          <mxGeometry relative="1" as="geometry" />
        </mxCell>
        <mxCell id="VD7d8r_EHNvj9PslrJd1-71" style="rounded=0;orthogonalLoop=1;jettySize=auto;html=1;entryX=1;entryY=0.5;entryDx=0;entryDy=0;endArrow=none;endFill=0;" edge="1" parent="1" source="VD7d8r_EHNvj9PslrJd1-54" target="VD7d8r_EHNvj9PslrJd1-70">
          <mxGeometry relative="1" as="geometry" />
        </mxCell>
        <mxCell id="VD7d8r_EHNvj9PslrJd1-108" style="rounded=0;orthogonalLoop=1;jettySize=auto;html=1;entryX=1;entryY=0.5;entryDx=0;entryDy=0;endArrow=none;endFill=0;" edge="1" parent="1" source="VD7d8r_EHNvj9PslrJd1-54" target="VD7d8r_EHNvj9PslrJd1-107">
          <mxGeometry relative="1" as="geometry" />
        </mxCell>
        <mxCell id="VD7d8r_EHNvj9PslrJd1-54" value="System Admin" style="shape=umlActor;verticalLabelPosition=bottom;verticalAlign=top;html=1;outlineConnect=0;strokeWidth=4;" vertex="1" parent="1">
          <mxGeometry x="-130" y="833" width="75" height="150" as="geometry" />
        </mxCell>
        <mxCell id="VD7d8r_EHNvj9PslrJd1-60" style="rounded=0;orthogonalLoop=1;jettySize=auto;html=1;endArrow=none;endFill=0;" edge="1" parent="1" source="VD7d8r_EHNvj9PslrJd1-55" target="VD7d8r_EHNvj9PslrJd1-59">
          <mxGeometry relative="1" as="geometry" />
        </mxCell>
        <mxCell id="VD7d8r_EHNvj9PslrJd1-64" style="rounded=0;orthogonalLoop=1;jettySize=auto;html=1;entryX=1;entryY=0.5;entryDx=0;entryDy=0;endArrow=none;endFill=0;" edge="1" parent="1" source="VD7d8r_EHNvj9PslrJd1-55" target="VD7d8r_EHNvj9PslrJd1-12">
          <mxGeometry relative="1" as="geometry" />
        </mxCell>
        <mxCell id="VD7d8r_EHNvj9PslrJd1-109" style="rounded=0;orthogonalLoop=1;jettySize=auto;html=1;entryX=1;entryY=0.5;entryDx=0;entryDy=0;startArrow=none;startFill=0;endArrow=none;endFill=0;" edge="1" parent="1" source="VD7d8r_EHNvj9PslrJd1-55" target="VD7d8r_EHNvj9PslrJd1-107">
          <mxGeometry relative="1" as="geometry" />
        </mxCell>
        <mxCell id="VD7d8r_EHNvj9PslrJd1-55" value="Customer Support" style="shape=umlActor;verticalLabelPosition=bottom;verticalAlign=top;html=1;outlineConnect=0;strokeWidth=4;" vertex="1" parent="1">
          <mxGeometry x="-130" y="553" width="75" height="150" as="geometry" />
        </mxCell>
        <mxCell id="VD7d8r_EHNvj9PslrJd1-58" style="rounded=0;orthogonalLoop=1;jettySize=auto;html=1;entryX=1.005;entryY=0.419;entryDx=0;entryDy=0;entryPerimeter=0;endArrow=none;endFill=0;" edge="1" parent="1" source="VD7d8r_EHNvj9PslrJd1-55" target="VD7d8r_EHNvj9PslrJd1-13">
          <mxGeometry relative="1" as="geometry" />
        </mxCell>
        <mxCell id="VD7d8r_EHNvj9PslrJd1-59" value="&lt;font style=&quot;font-size: 10px;&quot;&gt;Resolve Disputes&lt;/font&gt;" style="ellipse;whiteSpace=wrap;html=1;" vertex="1" parent="1">
          <mxGeometry x="-445" y="760" width="110" height="50" as="geometry" />
        </mxCell>
        <mxCell id="VD7d8r_EHNvj9PslrJd1-61" style="rounded=0;orthogonalLoop=1;jettySize=auto;html=1;entryX=0.982;entryY=0.347;entryDx=0;entryDy=0;entryPerimeter=0;endArrow=none;endFill=0;" edge="1" parent="1" source="VD7d8r_EHNvj9PslrJd1-19" target="VD7d8r_EHNvj9PslrJd1-59">
          <mxGeometry relative="1" as="geometry" />
        </mxCell>
        <mxCell id="VD7d8r_EHNvj9PslrJd1-63" value="&lt;font style=&quot;font-size: 10px;&quot;&gt;Manage User Accounts&lt;/font&gt;" style="ellipse;whiteSpace=wrap;html=1;" vertex="1" parent="1">
          <mxGeometry x="-445" y="820" width="110" height="50" as="geometry" />
        </mxCell>
        <mxCell id="VD7d8r_EHNvj9PslrJd1-65" value="&lt;font style=&quot;font-size: 10px;&quot;&gt;Manage System&lt;/font&gt;" style="ellipse;whiteSpace=wrap;html=1;" vertex="1" parent="1">
          <mxGeometry x="-445" y="878" width="110" height="50" as="geometry" />
        </mxCell>
        <mxCell id="VD7d8r_EHNvj9PslrJd1-70" value="&lt;span style=&quot;font-size: 10px;&quot;&gt;Verify&lt;/span&gt;&lt;div&gt;&lt;span style=&quot;font-size: 10px;&quot;&gt;&amp;nbsp;Store Authenticity&lt;/span&gt;&lt;/div&gt;" style="ellipse;whiteSpace=wrap;html=1;" vertex="1" parent="1">
          <mxGeometry x="-450" y="983" width="110" height="50" as="geometry" />
        </mxCell>
        <mxCell id="VD7d8r_EHNvj9PslrJd1-102" style="rounded=0;orthogonalLoop=1;jettySize=auto;html=1;dashed=1;startArrow=open;startFill=0;endArrow=none;endFill=0;" edge="1" parent="1" source="VD7d8r_EHNvj9PslrJd1-100">
          <mxGeometry relative="1" as="geometry">
            <mxPoint x="-390" y="243" as="targetPoint" />
          </mxGeometry>
        </mxCell>
        <mxCell id="VD7d8r_EHNvj9PslrJd1-100" value="&lt;span style=&quot;font-size: 10px;&quot;&gt;Search&lt;/span&gt;" style="ellipse;whiteSpace=wrap;html=1;" vertex="1" parent="1">
          <mxGeometry x="-360" y="263" width="85" height="30" as="geometry" />
        </mxCell>
        <mxCell id="VD7d8r_EHNvj9PslrJd1-103" value="&amp;lt;&amp;lt;exclude&amp;gt;&amp;gt;" style="text;html=1;align=center;verticalAlign=middle;whiteSpace=wrap;rounded=0;fontSize=8;" vertex="1" parent="1">
          <mxGeometry x="-370" y="243" width="70" height="10" as="geometry" />
        </mxCell>
        <mxCell id="VD7d8r_EHNvj9PslrJd1-107" value="&lt;span style=&quot;font-size: 10px;&quot;&gt;END&lt;/span&gt;" style="ellipse;whiteSpace=wrap;html=1;" vertex="1" parent="1">
          <mxGeometry x="-450" y="1043" width="110" height="50" as="geometry" />
        </mxCell>
        <mxCell id="RKkOBL6d1enxIJ8Rntz_-1" value="&lt;font style=&quot;font-size: 10px;&quot;&gt;Manage Inventory&lt;/font&gt;" style="ellipse;whiteSpace=wrap;html=1;" vertex="1" parent="1">
          <mxGeometry x="-450" y="473" width="110" height="42" as="geometry" />
        </mxCell>
        <mxCell id="RKkOBL6d1enxIJ8Rntz_-6" value="&lt;span style=&quot;font-size: 10px;&quot;&gt;Check for Bugs&lt;/span&gt;" style="ellipse;whiteSpace=wrap;html=1;" vertex="1" parent="1">
          <mxGeometry x="-480.25" y="953" width="85" height="30" as="geometry" />
        </mxCell>
        <mxCell id="RKkOBL6d1enxIJ8Rntz_-7" style="rounded=0;orthogonalLoop=1;jettySize=auto;html=1;entryX=0.308;entryY=0.968;entryDx=0;entryDy=0;entryPerimeter=0;endArrow=open;endFill=0;dashed=1;" edge="1" parent="1" source="RKkOBL6d1enxIJ8Rntz_-6" target="VD7d8r_EHNvj9PslrJd1-65">
          <mxGeometry relative="1" as="geometry">
            <mxPoint x="-398.5" y="928" as="targetPoint" />
          </mxGeometry>
        </mxCell>
        <mxCell id="RKkOBL6d1enxIJ8Rntz_-8" value="&amp;lt;&amp;lt;include&amp;gt;&amp;gt;" style="text;html=1;align=center;verticalAlign=middle;whiteSpace=wrap;rounded=0;fontSize=8;" vertex="1" parent="1">
          <mxGeometry x="-480" y="934" width="70" height="10" as="geometry" />
        </mxCell>
        <mxCell id="RKkOBL6d1enxIJ8Rntz_-9" value="&lt;span style=&quot;font-size: 10px;&quot;&gt;System Improvements&lt;/span&gt;" style="ellipse;whiteSpace=wrap;html=1;" vertex="1" parent="1">
          <mxGeometry x="-388.5" y="953" width="85" height="30" as="geometry" />
        </mxCell>
        <mxCell id="RKkOBL6d1enxIJ8Rntz_-10" style="rounded=0;orthogonalLoop=1;jettySize=auto;html=1;entryX=0.742;entryY=0.934;entryDx=0;entryDy=0;entryPerimeter=0;endArrow=open;endFill=0;dashed=1;" edge="1" source="RKkOBL6d1enxIJ8Rntz_-9" parent="1" target="VD7d8r_EHNvj9PslrJd1-65">
          <mxGeometry relative="1" as="geometry">
            <mxPoint x="-296.25" y="929" as="targetPoint" />
          </mxGeometry>
        </mxCell>
        <mxCell id="RKkOBL6d1enxIJ8Rntz_-11" value="&amp;lt;&amp;lt;include&amp;gt;&amp;gt;" style="text;html=1;align=center;verticalAlign=middle;whiteSpace=wrap;rounded=0;fontSize=8;" vertex="1" parent="1">
          <mxGeometry x="-365" y="934" width="70" height="10" as="geometry" />
        </mxCell>
      </root>
    </mxGraphModel>
  </diagram>
  <diagram id="lv7IFf4j8f_QzU5K00iU" name="Flowchart">
    <mxGraphModel dx="2950" dy="1853" grid="1" gridSize="10" guides="1" tooltips="1" connect="1" arrows="1" fold="1" page="1" pageScale="1" pageWidth="850" pageHeight="1100" math="0" shadow="0">
      <root>
        <mxCell id="0" />
        <mxCell id="1" parent="0" />
        <mxCell id="LFIohPqwvmcPHVpf6LmG-4" value="Customer" style="swimlane;horizontal=0;whiteSpace=wrap;html=1;fillColor=#d5e8d4;strokeColor=#82b366;startSize=23;" vertex="1" parent="1">
          <mxGeometry x="40" y="370" width="2500" height="310" as="geometry" />
        </mxCell>
        <mxCell id="LFIohPqwvmcPHVpf6LmG-11" value="" style="edgeStyle=orthogonalEdgeStyle;rounded=0;orthogonalLoop=1;jettySize=auto;html=1;" edge="1" parent="LFIohPqwvmcPHVpf6LmG-4" source="Yik6zkkDphFywbpoYDEB-3" target="LFIohPqwvmcPHVpf6LmG-10">
          <mxGeometry relative="1" as="geometry" />
        </mxCell>
        <mxCell id="Yik6zkkDphFywbpoYDEB-3" value="Find Products&amp;nbsp;&lt;div&gt;to buy&lt;/div&gt;" style="strokeWidth=2;html=1;shape=mxgraph.flowchart.delay;whiteSpace=wrap;fillColor=#d5e8d4;strokeColor=#82b366;" vertex="1" parent="LFIohPqwvmcPHVpf6LmG-4">
          <mxGeometry x="230" y="140" width="100" height="60" as="geometry" />
        </mxCell>
        <mxCell id="LFIohPqwvmcPHVpf6LmG-17" value="" style="edgeStyle=orthogonalEdgeStyle;rounded=0;orthogonalLoop=1;jettySize=auto;html=1;" edge="1" parent="LFIohPqwvmcPHVpf6LmG-4" source="Yik6zkkDphFywbpoYDEB-4" target="LFIohPqwvmcPHVpf6LmG-16">
          <mxGeometry relative="1" as="geometry" />
        </mxCell>
        <mxCell id="Yik6zkkDphFywbpoYDEB-4" value="Add To Cart" style="rounded=1;whiteSpace=wrap;html=1;fillColor=#d5e8d4;strokeColor=#82b366;" vertex="1" parent="LFIohPqwvmcPHVpf6LmG-4">
          <mxGeometry x="510" y="140" width="120" height="60" as="geometry" />
        </mxCell>
        <mxCell id="LFIohPqwvmcPHVpf6LmG-24" value="" style="edgeStyle=orthogonalEdgeStyle;rounded=0;orthogonalLoop=1;jettySize=auto;html=1;" edge="1" parent="LFIohPqwvmcPHVpf6LmG-4" source="Yik6zkkDphFywbpoYDEB-5" target="LFIohPqwvmcPHVpf6LmG-23">
          <mxGeometry relative="1" as="geometry" />
        </mxCell>
        <mxCell id="Yik6zkkDphFywbpoYDEB-5" value="Checkout Section" style="rounded=1;whiteSpace=wrap;html=1;fillColor=#d5e8d4;strokeColor=#82b366;" vertex="1" parent="LFIohPqwvmcPHVpf6LmG-4">
          <mxGeometry x="860" y="140" width="120" height="60" as="geometry" />
        </mxCell>
        <mxCell id="LFIohPqwvmcPHVpf6LmG-60" value="" style="edgeStyle=orthogonalEdgeStyle;rounded=0;orthogonalLoop=1;jettySize=auto;html=1;" edge="1" parent="LFIohPqwvmcPHVpf6LmG-4" source="Yik6zkkDphFywbpoYDEB-6" target="LFIohPqwvmcPHVpf6LmG-49">
          <mxGeometry relative="1" as="geometry" />
        </mxCell>
        <mxCell id="Yik6zkkDphFywbpoYDEB-6" value="Prompt: &quot;Purchase Successful&quot;" style="rounded=1;whiteSpace=wrap;html=1;fillColor=#d5e8d4;strokeColor=#82b366;" vertex="1" parent="LFIohPqwvmcPHVpf6LmG-4">
          <mxGeometry x="1340" y="140" width="120" height="60" as="geometry" />
        </mxCell>
        <mxCell id="LFIohPqwvmcPHVpf6LmG-9" value="" style="edgeStyle=orthogonalEdgeStyle;rounded=0;orthogonalLoop=1;jettySize=auto;html=1;" edge="1" parent="LFIohPqwvmcPHVpf6LmG-4" source="Yik6zkkDphFywbpoYDEB-2" target="Yik6zkkDphFywbpoYDEB-3">
          <mxGeometry relative="1" as="geometry" />
        </mxCell>
        <mxCell id="Yik6zkkDphFywbpoYDEB-2" value="Browse Products" style="rounded=1;whiteSpace=wrap;html=1;fillColor=#d5e8d4;strokeColor=#82b366;" vertex="1" parent="LFIohPqwvmcPHVpf6LmG-4">
          <mxGeometry x="50" y="140" width="120" height="60" as="geometry" />
        </mxCell>
        <mxCell id="LFIohPqwvmcPHVpf6LmG-12" value="" style="edgeStyle=orthogonalEdgeStyle;rounded=0;orthogonalLoop=1;jettySize=auto;html=1;" edge="1" parent="LFIohPqwvmcPHVpf6LmG-4" source="LFIohPqwvmcPHVpf6LmG-10" target="Yik6zkkDphFywbpoYDEB-4">
          <mxGeometry relative="1" as="geometry" />
        </mxCell>
        <mxCell id="LFIohPqwvmcPHVpf6LmG-13" value="Yes" style="edgeLabel;html=1;align=center;verticalAlign=middle;resizable=0;points=[];" vertex="1" connectable="0" parent="LFIohPqwvmcPHVpf6LmG-12">
          <mxGeometry x="-0.1013" relative="1" as="geometry">
            <mxPoint as="offset" />
          </mxGeometry>
        </mxCell>
        <mxCell id="LFIohPqwvmcPHVpf6LmG-10" value="Found Product?" style="strokeWidth=2;html=1;shape=mxgraph.flowchart.decision;whiteSpace=wrap;fillColor=#d5e8d4;strokeColor=#82b366;" vertex="1" parent="LFIohPqwvmcPHVpf6LmG-4">
          <mxGeometry x="375" y="130" width="80" height="80" as="geometry" />
        </mxCell>
        <mxCell id="LFIohPqwvmcPHVpf6LmG-14" value="No" style="edgeStyle=orthogonalEdgeStyle;rounded=0;orthogonalLoop=1;jettySize=auto;html=1;" edge="1" parent="LFIohPqwvmcPHVpf6LmG-4" source="LFIohPqwvmcPHVpf6LmG-10">
          <mxGeometry relative="1" as="geometry">
            <mxPoint x="270" y="200" as="targetPoint" />
            <Array as="points">
              <mxPoint x="415" y="230" />
              <mxPoint x="270" y="230" />
            </Array>
          </mxGeometry>
        </mxCell>
        <mxCell id="LFIohPqwvmcPHVpf6LmG-19" value="" style="edgeStyle=orthogonalEdgeStyle;rounded=0;orthogonalLoop=1;jettySize=auto;html=1;" edge="1" parent="LFIohPqwvmcPHVpf6LmG-4" source="LFIohPqwvmcPHVpf6LmG-16" target="Yik6zkkDphFywbpoYDEB-5">
          <mxGeometry relative="1" as="geometry" />
        </mxCell>
        <mxCell id="LFIohPqwvmcPHVpf6LmG-20" value="Yes" style="edgeLabel;html=1;align=center;verticalAlign=middle;resizable=0;points=[];" vertex="1" connectable="0" parent="LFIohPqwvmcPHVpf6LmG-19">
          <mxGeometry x="-0.0391" relative="1" as="geometry">
            <mxPoint as="offset" />
          </mxGeometry>
        </mxCell>
        <mxCell id="LFIohPqwvmcPHVpf6LmG-21" value="No" style="edgeStyle=orthogonalEdgeStyle;rounded=0;orthogonalLoop=1;jettySize=auto;html=1;entryX=0.375;entryY=-0.019;entryDx=0;entryDy=0;entryPerimeter=0;exitX=0.5;exitY=0;exitDx=0;exitDy=0;exitPerimeter=0;" edge="1" parent="LFIohPqwvmcPHVpf6LmG-4" source="LFIohPqwvmcPHVpf6LmG-16" target="Yik6zkkDphFywbpoYDEB-3">
          <mxGeometry relative="1" as="geometry">
            <mxPoint x="716.3149253731342" y="69.99000000000001" as="sourcePoint" />
            <mxPoint x="249.99999999999994" y="78.7299999999999" as="targetPoint" />
            <Array as="points">
              <mxPoint x="735" y="100" />
              <mxPoint x="268" y="100" />
            </Array>
          </mxGeometry>
        </mxCell>
        <mxCell id="LFIohPqwvmcPHVpf6LmG-16" value="Satisfied&amp;nbsp;&lt;div&gt;with&amp;nbsp;&lt;/div&gt;&lt;div&gt;cart lists?&lt;/div&gt;" style="strokeWidth=2;html=1;shape=mxgraph.flowchart.decision;whiteSpace=wrap;fillColor=#d5e8d4;strokeColor=#82b366;" vertex="1" parent="LFIohPqwvmcPHVpf6LmG-4">
          <mxGeometry x="690" y="130" width="90" height="80" as="geometry" />
        </mxCell>
        <mxCell id="LFIohPqwvmcPHVpf6LmG-30" value="" style="edgeStyle=orthogonalEdgeStyle;rounded=0;orthogonalLoop=1;jettySize=auto;html=1;" edge="1" parent="LFIohPqwvmcPHVpf6LmG-4" source="LFIohPqwvmcPHVpf6LmG-22" target="LFIohPqwvmcPHVpf6LmG-28">
          <mxGeometry relative="1" as="geometry" />
        </mxCell>
        <mxCell id="LFIohPqwvmcPHVpf6LmG-32" value="No" style="edgeLabel;html=1;align=center;verticalAlign=middle;resizable=0;points=[];" vertex="1" connectable="0" parent="LFIohPqwvmcPHVpf6LmG-30">
          <mxGeometry x="-0.2065" y="1" relative="1" as="geometry">
            <mxPoint as="offset" />
          </mxGeometry>
        </mxCell>
        <mxCell id="LFIohPqwvmcPHVpf6LmG-33" value="" style="edgeStyle=orthogonalEdgeStyle;rounded=0;orthogonalLoop=1;jettySize=auto;html=1;" edge="1" parent="LFIohPqwvmcPHVpf6LmG-4" source="LFIohPqwvmcPHVpf6LmG-22" target="Yik6zkkDphFywbpoYDEB-6">
          <mxGeometry relative="1" as="geometry" />
        </mxCell>
        <mxCell id="LFIohPqwvmcPHVpf6LmG-34" value="Yes" style="edgeLabel;html=1;align=center;verticalAlign=middle;resizable=0;points=[];" vertex="1" connectable="0" parent="LFIohPqwvmcPHVpf6LmG-33">
          <mxGeometry x="0.0386" relative="1" as="geometry">
            <mxPoint as="offset" />
          </mxGeometry>
        </mxCell>
        <mxCell id="LFIohPqwvmcPHVpf6LmG-22" value="Payment Successful?" style="strokeWidth=2;html=1;shape=mxgraph.flowchart.decision;whiteSpace=wrap;fillColor=#d5e8d4;strokeColor=#82b366;" vertex="1" parent="LFIohPqwvmcPHVpf6LmG-4">
          <mxGeometry x="1180" y="130" width="90" height="80" as="geometry" />
        </mxCell>
        <mxCell id="LFIohPqwvmcPHVpf6LmG-25" value="" style="edgeStyle=orthogonalEdgeStyle;rounded=0;orthogonalLoop=1;jettySize=auto;html=1;" edge="1" parent="LFIohPqwvmcPHVpf6LmG-4" source="LFIohPqwvmcPHVpf6LmG-23" target="LFIohPqwvmcPHVpf6LmG-22">
          <mxGeometry relative="1" as="geometry" />
        </mxCell>
        <mxCell id="LFIohPqwvmcPHVpf6LmG-23" value="Fill out form for&amp;nbsp;&lt;div&gt;payment&lt;/div&gt;" style="shape=parallelogram;html=1;strokeWidth=2;perimeter=parallelogramPerimeter;whiteSpace=wrap;rounded=1;arcSize=12;size=0.23;fillColor=#d5e8d4;strokeColor=#82b366;" vertex="1" parent="LFIohPqwvmcPHVpf6LmG-4">
          <mxGeometry x="1020" y="140" width="130" height="60" as="geometry" />
        </mxCell>
        <mxCell id="LFIohPqwvmcPHVpf6LmG-28" value="Prompt: &quot;Try again&quot;" style="rounded=1;whiteSpace=wrap;html=1;fillColor=#d5e8d4;strokeColor=#82b366;" vertex="1" parent="LFIohPqwvmcPHVpf6LmG-4">
          <mxGeometry x="1165" y="20" width="120" height="60" as="geometry" />
        </mxCell>
        <mxCell id="LFIohPqwvmcPHVpf6LmG-31" style="edgeStyle=orthogonalEdgeStyle;rounded=0;orthogonalLoop=1;jettySize=auto;html=1;entryX=0.565;entryY=-0.018;entryDx=0;entryDy=0;entryPerimeter=0;" edge="1" parent="LFIohPqwvmcPHVpf6LmG-4" source="LFIohPqwvmcPHVpf6LmG-28" target="LFIohPqwvmcPHVpf6LmG-23">
          <mxGeometry relative="1" as="geometry" />
        </mxCell>
        <mxCell id="LFIohPqwvmcPHVpf6LmG-84" value="" style="edgeStyle=orthogonalEdgeStyle;rounded=0;orthogonalLoop=1;jettySize=auto;html=1;" edge="1" parent="LFIohPqwvmcPHVpf6LmG-4" source="LFIohPqwvmcPHVpf6LmG-49" target="LFIohPqwvmcPHVpf6LmG-52">
          <mxGeometry relative="1" as="geometry" />
        </mxCell>
        <mxCell id="LFIohPqwvmcPHVpf6LmG-87" value="Yes" style="edgeLabel;html=1;align=center;verticalAlign=middle;resizable=0;points=[];" vertex="1" connectable="0" parent="LFIohPqwvmcPHVpf6LmG-84">
          <mxGeometry x="-0.705" y="-2" relative="1" as="geometry">
            <mxPoint as="offset" />
          </mxGeometry>
        </mxCell>
        <mxCell id="LFIohPqwvmcPHVpf6LmG-49" value="Refund?" style="strokeWidth=2;html=1;shape=mxgraph.flowchart.decision;whiteSpace=wrap;fillColor=#d5e8d4;strokeColor=#82b366;" vertex="1" parent="LFIohPqwvmcPHVpf6LmG-4">
          <mxGeometry x="1510" y="130" width="90" height="80" as="geometry" />
        </mxCell>
        <mxCell id="LFIohPqwvmcPHVpf6LmG-52" value="Request Refund" style="rounded=1;whiteSpace=wrap;html=1;fillColor=#d5e8d4;strokeColor=#82b366;" vertex="1" parent="LFIohPqwvmcPHVpf6LmG-4">
          <mxGeometry x="1495" y="240" width="120" height="60" as="geometry" />
        </mxCell>
        <mxCell id="LFIohPqwvmcPHVpf6LmG-36" value="Check order status?" style="strokeWidth=2;html=1;shape=mxgraph.flowchart.decision;whiteSpace=wrap;fillColor=#d5e8d4;strokeColor=#82b366;" vertex="1" parent="LFIohPqwvmcPHVpf6LmG-4">
          <mxGeometry x="1760" y="130" width="90" height="80" as="geometry" />
        </mxCell>
        <mxCell id="LFIohPqwvmcPHVpf6LmG-35" value="Track Order" style="rounded=1;whiteSpace=wrap;html=1;fillColor=#d5e8d4;strokeColor=#82b366;" vertex="1" parent="LFIohPqwvmcPHVpf6LmG-4">
          <mxGeometry x="1940" y="140" width="120" height="60" as="geometry" />
        </mxCell>
        <mxCell id="LFIohPqwvmcPHVpf6LmG-37" value="Yes" style="edgeStyle=orthogonalEdgeStyle;rounded=0;orthogonalLoop=1;jettySize=auto;html=1;" edge="1" parent="LFIohPqwvmcPHVpf6LmG-4" source="LFIohPqwvmcPHVpf6LmG-36" target="LFIohPqwvmcPHVpf6LmG-35">
          <mxGeometry relative="1" as="geometry" />
        </mxCell>
        <mxCell id="LFIohPqwvmcPHVpf6LmG-79" style="edgeStyle=orthogonalEdgeStyle;rounded=0;orthogonalLoop=1;jettySize=auto;html=1;entryX=0;entryY=0.5;entryDx=0;entryDy=0;entryPerimeter=0;" edge="1" parent="LFIohPqwvmcPHVpf6LmG-4" source="LFIohPqwvmcPHVpf6LmG-49" target="LFIohPqwvmcPHVpf6LmG-36">
          <mxGeometry relative="1" as="geometry" />
        </mxCell>
        <mxCell id="LFIohPqwvmcPHVpf6LmG-103" style="edgeStyle=orthogonalEdgeStyle;rounded=0;orthogonalLoop=1;jettySize=auto;html=1;" edge="1" parent="LFIohPqwvmcPHVpf6LmG-4" target="z1_XDWnO2-swt9e1ShHo-42">
          <mxGeometry relative="1" as="geometry">
            <mxPoint x="2430" y="358" as="targetPoint" />
            <mxPoint x="1809.9999999999995" y="130.0000000000001" as="sourcePoint" />
            <Array as="points">
              <mxPoint x="1810" y="90" />
              <mxPoint x="2426" y="90" />
            </Array>
          </mxGeometry>
        </mxCell>
        <mxCell id="LFIohPqwvmcPHVpf6LmG-104" value="No" style="edgeLabel;html=1;align=center;verticalAlign=middle;resizable=0;points=[];" vertex="1" connectable="0" parent="LFIohPqwvmcPHVpf6LmG-103">
          <mxGeometry x="-0.2371" y="4" relative="1" as="geometry">
            <mxPoint as="offset" />
          </mxGeometry>
        </mxCell>
        <mxCell id="LFIohPqwvmcPHVpf6LmG-5" value="Vendor/Seller" style="swimlane;horizontal=0;whiteSpace=wrap;html=1;fillColor=#dae8fc;strokeColor=#6c8ebf;" vertex="1" parent="1">
          <mxGeometry x="40" y="680" width="2500" height="160" as="geometry" />
        </mxCell>
        <mxCell id="LFIohPqwvmcPHVpf6LmG-48" value="" style="edgeStyle=orthogonalEdgeStyle;rounded=0;orthogonalLoop=1;jettySize=auto;html=1;" edge="1" parent="LFIohPqwvmcPHVpf6LmG-5" source="LFIohPqwvmcPHVpf6LmG-45" target="LFIohPqwvmcPHVpf6LmG-47">
          <mxGeometry relative="1" as="geometry" />
        </mxCell>
        <mxCell id="LFIohPqwvmcPHVpf6LmG-62" value="" style="edgeStyle=orthogonalEdgeStyle;rounded=0;orthogonalLoop=1;jettySize=auto;html=1;" edge="1" parent="LFIohPqwvmcPHVpf6LmG-5" source="LFIohPqwvmcPHVpf6LmG-47" target="LFIohPqwvmcPHVpf6LmG-61">
          <mxGeometry relative="1" as="geometry" />
        </mxCell>
        <mxCell id="LFIohPqwvmcPHVpf6LmG-45" value="Receive Customer Order" style="rounded=1;whiteSpace=wrap;html=1;fillColor=#dae8fc;strokeColor=#6c8ebf;" vertex="1" parent="LFIohPqwvmcPHVpf6LmG-5">
          <mxGeometry x="1610" y="50" width="120" height="60" as="geometry" />
        </mxCell>
        <mxCell id="LFIohPqwvmcPHVpf6LmG-47" value="Prepare Products Ordered" style="whiteSpace=wrap;html=1;fillColor=#dae8fc;strokeColor=#6c8ebf;rounded=1;" vertex="1" parent="LFIohPqwvmcPHVpf6LmG-5">
          <mxGeometry x="1785" y="50" width="120" height="60" as="geometry" />
        </mxCell>
        <mxCell id="LFIohPqwvmcPHVpf6LmG-97" value="" style="edgeStyle=orthogonalEdgeStyle;rounded=0;orthogonalLoop=1;jettySize=auto;html=1;" edge="1" parent="LFIohPqwvmcPHVpf6LmG-5" source="LFIohPqwvmcPHVpf6LmG-61">
          <mxGeometry relative="1" as="geometry">
            <mxPoint x="2205" y="80" as="targetPoint" />
          </mxGeometry>
        </mxCell>
        <mxCell id="LFIohPqwvmcPHVpf6LmG-61" value="Set Order Arrival Time" style="whiteSpace=wrap;html=1;fillColor=#dae8fc;strokeColor=#6c8ebf;rounded=1;" vertex="1" parent="LFIohPqwvmcPHVpf6LmG-5">
          <mxGeometry x="1985" y="50" width="120" height="60" as="geometry" />
        </mxCell>
        <mxCell id="LFIohPqwvmcPHVpf6LmG-99" value="" style="edgeStyle=orthogonalEdgeStyle;rounded=0;orthogonalLoop=1;jettySize=auto;html=1;entryX=0;entryY=0.5;entryDx=0;entryDy=0;entryPerimeter=0;" edge="1" parent="LFIohPqwvmcPHVpf6LmG-5" source="LFIohPqwvmcPHVpf6LmG-98" target="z1_XDWnO2-swt9e1ShHo-42">
          <mxGeometry relative="1" as="geometry">
            <mxPoint x="2380" y="80" as="targetPoint" />
          </mxGeometry>
        </mxCell>
        <mxCell id="LFIohPqwvmcPHVpf6LmG-100" value="No" style="edgeLabel;html=1;align=center;verticalAlign=middle;resizable=0;points=[];" vertex="1" connectable="0" parent="LFIohPqwvmcPHVpf6LmG-99">
          <mxGeometry x="-0.2709" relative="1" as="geometry">
            <mxPoint as="offset" />
          </mxGeometry>
        </mxCell>
        <mxCell id="LFIohPqwvmcPHVpf6LmG-101" style="edgeStyle=orthogonalEdgeStyle;rounded=0;orthogonalLoop=1;jettySize=auto;html=1;entryX=0.5;entryY=1;entryDx=0;entryDy=0;exitX=0.5;exitY=1;exitDx=0;exitDy=0;" edge="1" parent="LFIohPqwvmcPHVpf6LmG-5" source="LFIohPqwvmcPHVpf6LmG-98" target="LFIohPqwvmcPHVpf6LmG-45">
          <mxGeometry relative="1" as="geometry">
            <Array as="points">
              <mxPoint x="2220" y="140" />
              <mxPoint x="1670" y="140" />
            </Array>
          </mxGeometry>
        </mxCell>
        <mxCell id="LFIohPqwvmcPHVpf6LmG-102" value="Yes" style="edgeLabel;html=1;align=center;verticalAlign=middle;resizable=0;points=[];" vertex="1" connectable="0" parent="LFIohPqwvmcPHVpf6LmG-101">
          <mxGeometry x="-0.1059" relative="1" as="geometry">
            <mxPoint as="offset" />
          </mxGeometry>
        </mxCell>
        <mxCell id="LFIohPqwvmcPHVpf6LmG-98" value="Other pending orders?" style="rhombus;whiteSpace=wrap;html=1;fillColor=#dae8fc;strokeColor=#6c8ebf;strokeWidth=2;" vertex="1" parent="LFIohPqwvmcPHVpf6LmG-5">
          <mxGeometry x="2160" y="40" width="120" height="80" as="geometry" />
        </mxCell>
        <mxCell id="z1_XDWnO2-swt9e1ShHo-42" value="End" style="strokeWidth=2;html=1;shape=mxgraph.flowchart.start_1;whiteSpace=wrap;" vertex="1" parent="LFIohPqwvmcPHVpf6LmG-5">
          <mxGeometry x="2370" y="50" width="100" height="60" as="geometry" />
        </mxCell>
        <mxCell id="LFIohPqwvmcPHVpf6LmG-6" value="Customer Support" style="swimlane;horizontal=0;whiteSpace=wrap;html=1;fillColor=#fff2cc;strokeColor=#d6b656;" vertex="1" parent="1">
          <mxGeometry x="40" y="840" width="2500" height="260" as="geometry" />
        </mxCell>
        <mxCell id="LFIohPqwvmcPHVpf6LmG-71" value="" style="edgeStyle=orthogonalEdgeStyle;rounded=0;orthogonalLoop=1;jettySize=auto;html=1;" edge="1" parent="LFIohPqwvmcPHVpf6LmG-6" source="LFIohPqwvmcPHVpf6LmG-69" target="LFIohPqwvmcPHVpf6LmG-70">
          <mxGeometry relative="1" as="geometry" />
        </mxCell>
        <mxCell id="LFIohPqwvmcPHVpf6LmG-69" value="Received refund request" style="rounded=1;whiteSpace=wrap;html=1;fillColor=#fff2cc;strokeColor=#d6b656;" vertex="1" parent="LFIohPqwvmcPHVpf6LmG-6">
          <mxGeometry x="1610" y="50" width="120" height="60" as="geometry" />
        </mxCell>
        <mxCell id="LFIohPqwvmcPHVpf6LmG-73" value="" style="edgeStyle=orthogonalEdgeStyle;rounded=0;orthogonalLoop=1;jettySize=auto;html=1;" edge="1" parent="LFIohPqwvmcPHVpf6LmG-6" source="LFIohPqwvmcPHVpf6LmG-70" target="LFIohPqwvmcPHVpf6LmG-72">
          <mxGeometry relative="1" as="geometry" />
        </mxCell>
        <mxCell id="LFIohPqwvmcPHVpf6LmG-70" value="Check validity of the request" style="strokeWidth=2;html=1;shape=mxgraph.flowchart.delay;whiteSpace=wrap;fillColor=#fff2cc;strokeColor=#d6b656;" vertex="1" parent="LFIohPqwvmcPHVpf6LmG-6">
          <mxGeometry x="1810" y="50" width="100" height="60" as="geometry" />
        </mxCell>
        <mxCell id="LFIohPqwvmcPHVpf6LmG-75" value="" style="edgeStyle=orthogonalEdgeStyle;rounded=0;orthogonalLoop=1;jettySize=auto;html=1;" edge="1" parent="LFIohPqwvmcPHVpf6LmG-6" source="LFIohPqwvmcPHVpf6LmG-72" target="LFIohPqwvmcPHVpf6LmG-74">
          <mxGeometry relative="1" as="geometry" />
        </mxCell>
        <mxCell id="LFIohPqwvmcPHVpf6LmG-76" value="Yes" style="edgeLabel;html=1;align=center;verticalAlign=middle;resizable=0;points=[];" vertex="1" connectable="0" parent="LFIohPqwvmcPHVpf6LmG-75">
          <mxGeometry x="-0.3366" relative="1" as="geometry">
            <mxPoint as="offset" />
          </mxGeometry>
        </mxCell>
        <mxCell id="LFIohPqwvmcPHVpf6LmG-94" value="" style="edgeStyle=orthogonalEdgeStyle;rounded=0;orthogonalLoop=1;jettySize=auto;html=1;" edge="1" parent="LFIohPqwvmcPHVpf6LmG-6" source="LFIohPqwvmcPHVpf6LmG-72">
          <mxGeometry relative="1" as="geometry">
            <mxPoint x="2040" y="170" as="targetPoint" />
          </mxGeometry>
        </mxCell>
        <mxCell id="LFIohPqwvmcPHVpf6LmG-72" value="Valid for refund?" style="rhombus;whiteSpace=wrap;html=1;fillColor=#fff2cc;strokeColor=#d6b656;strokeWidth=2;" vertex="1" parent="LFIohPqwvmcPHVpf6LmG-6">
          <mxGeometry x="2000" y="40" width="80" height="80" as="geometry" />
        </mxCell>
        <mxCell id="LFIohPqwvmcPHVpf6LmG-106" value="" style="edgeStyle=orthogonalEdgeStyle;rounded=0;orthogonalLoop=1;jettySize=auto;html=1;entryX=0;entryY=0.5;entryDx=0;entryDy=0;" edge="1" parent="LFIohPqwvmcPHVpf6LmG-6" source="LFIohPqwvmcPHVpf6LmG-74" target="LFIohPqwvmcPHVpf6LmG-107">
          <mxGeometry relative="1" as="geometry">
            <mxPoint x="2380" y="80" as="targetPoint" />
          </mxGeometry>
        </mxCell>
        <mxCell id="LFIohPqwvmcPHVpf6LmG-74" value="Prompt User:&amp;nbsp;&lt;div&gt;&quot;Refund Successfully&quot;&lt;/div&gt;" style="rounded=1;whiteSpace=wrap;html=1;fillColor=#fff2cc;strokeColor=#d6b656;" vertex="1" parent="LFIohPqwvmcPHVpf6LmG-6">
          <mxGeometry x="2160" y="50" width="120" height="60" as="geometry" />
        </mxCell>
        <mxCell id="LFIohPqwvmcPHVpf6LmG-95" value="Prompt User:&amp;nbsp;&lt;div&gt;&quot;Refund Unsuccessfully&quot;&lt;/div&gt;" style="rounded=1;whiteSpace=wrap;html=1;fillColor=#fff2cc;strokeColor=#d6b656;" vertex="1" parent="LFIohPqwvmcPHVpf6LmG-6">
          <mxGeometry x="1980" y="170" width="120" height="60" as="geometry" />
        </mxCell>
        <mxCell id="LFIohPqwvmcPHVpf6LmG-110" style="edgeStyle=orthogonalEdgeStyle;rounded=0;orthogonalLoop=1;jettySize=auto;html=1;entryX=0.5;entryY=1;entryDx=0;entryDy=0;" edge="1" parent="LFIohPqwvmcPHVpf6LmG-6" source="LFIohPqwvmcPHVpf6LmG-107" target="LFIohPqwvmcPHVpf6LmG-69">
          <mxGeometry relative="1" as="geometry">
            <Array as="points">
              <mxPoint x="2420" y="250" />
              <mxPoint x="1670" y="250" />
            </Array>
          </mxGeometry>
        </mxCell>
        <mxCell id="LFIohPqwvmcPHVpf6LmG-111" value="Yes" style="edgeLabel;html=1;align=center;verticalAlign=middle;resizable=0;points=[];" vertex="1" connectable="0" parent="LFIohPqwvmcPHVpf6LmG-110">
          <mxGeometry x="-0.8985" y="4" relative="1" as="geometry">
            <mxPoint as="offset" />
          </mxGeometry>
        </mxCell>
        <mxCell id="LFIohPqwvmcPHVpf6LmG-107" value="Other pending&amp;nbsp;&lt;div&gt;refund request?&lt;/div&gt;" style="rhombus;whiteSpace=wrap;html=1;fillColor=#fff2cc;strokeColor=#d6b656;strokeWidth=2;" vertex="1" parent="LFIohPqwvmcPHVpf6LmG-6">
          <mxGeometry x="2345" y="45" width="150" height="70" as="geometry" />
        </mxCell>
        <mxCell id="LFIohPqwvmcPHVpf6LmG-63" style="edgeStyle=orthogonalEdgeStyle;rounded=0;orthogonalLoop=1;jettySize=auto;html=1;entryX=0.5;entryY=1;entryDx=0;entryDy=0;" edge="1" parent="1" source="LFIohPqwvmcPHVpf6LmG-61" target="LFIohPqwvmcPHVpf6LmG-35">
          <mxGeometry relative="1" as="geometry">
            <Array as="points">
              <mxPoint x="2085" y="610" />
              <mxPoint x="2040" y="610" />
            </Array>
          </mxGeometry>
        </mxCell>
        <mxCell id="LFIohPqwvmcPHVpf6LmG-81" style="edgeStyle=orthogonalEdgeStyle;rounded=0;orthogonalLoop=1;jettySize=auto;html=1;entryX=0.5;entryY=0;entryDx=0;entryDy=0;" edge="1" parent="1" source="LFIohPqwvmcPHVpf6LmG-49" target="LFIohPqwvmcPHVpf6LmG-45">
          <mxGeometry relative="1" as="geometry" />
        </mxCell>
        <mxCell id="LFIohPqwvmcPHVpf6LmG-82" value="NO" style="edgeLabel;html=1;align=center;verticalAlign=middle;resizable=0;points=[];" vertex="1" connectable="0" parent="LFIohPqwvmcPHVpf6LmG-81">
          <mxGeometry x="-0.6281" y="1" relative="1" as="geometry">
            <mxPoint as="offset" />
          </mxGeometry>
        </mxCell>
        <mxCell id="LFIohPqwvmcPHVpf6LmG-86" style="edgeStyle=orthogonalEdgeStyle;rounded=0;orthogonalLoop=1;jettySize=auto;html=1;entryX=0;entryY=0.5;entryDx=0;entryDy=0;" edge="1" parent="1" source="LFIohPqwvmcPHVpf6LmG-52" target="LFIohPqwvmcPHVpf6LmG-69">
          <mxGeometry relative="1" as="geometry" />
        </mxCell>
        <mxCell id="LFIohPqwvmcPHVpf6LmG-42" value="" style="edgeStyle=orthogonalEdgeStyle;rounded=0;orthogonalLoop=1;jettySize=auto;html=1;" edge="1" parent="1" source="LFIohPqwvmcPHVpf6LmG-35" target="z1_XDWnO2-swt9e1ShHo-42">
          <mxGeometry relative="1" as="geometry">
            <mxPoint x="2460" y="720" as="targetPoint" />
          </mxGeometry>
        </mxCell>
        <mxCell id="LFIohPqwvmcPHVpf6LmG-108" style="edgeStyle=orthogonalEdgeStyle;rounded=0;orthogonalLoop=1;jettySize=auto;html=1;entryX=0.5;entryY=1;entryDx=0;entryDy=0;entryPerimeter=0;" edge="1" parent="1" source="LFIohPqwvmcPHVpf6LmG-107" target="z1_XDWnO2-swt9e1ShHo-42">
          <mxGeometry relative="1" as="geometry">
            <mxPoint x="2460" y="800" as="targetPoint" />
          </mxGeometry>
        </mxCell>
        <mxCell id="LFIohPqwvmcPHVpf6LmG-109" value="No" style="edgeLabel;html=1;align=center;verticalAlign=middle;resizable=0;points=[];" vertex="1" connectable="0" parent="LFIohPqwvmcPHVpf6LmG-108">
          <mxGeometry x="-0.0768" y="2" relative="1" as="geometry">
            <mxPoint as="offset" />
          </mxGeometry>
        </mxCell>
        <mxCell id="z1_XDWnO2-swt9e1ShHo-39" value="Log-in" style="swimlane;horizontal=0;whiteSpace=wrap;html=1;" vertex="1" parent="1">
          <mxGeometry x="40" width="2500" height="370" as="geometry" />
        </mxCell>
        <mxCell id="z1_XDWnO2-swt9e1ShHo-46" value="" style="edgeStyle=orthogonalEdgeStyle;rounded=0;orthogonalLoop=1;jettySize=auto;html=1;" edge="1" parent="z1_XDWnO2-swt9e1ShHo-39" source="z1_XDWnO2-swt9e1ShHo-41" target="z1_XDWnO2-swt9e1ShHo-45">
          <mxGeometry relative="1" as="geometry" />
        </mxCell>
        <mxCell id="z1_XDWnO2-swt9e1ShHo-41" value="Start" style="strokeWidth=2;html=1;shape=mxgraph.flowchart.start_1;whiteSpace=wrap;" vertex="1" parent="z1_XDWnO2-swt9e1ShHo-39">
          <mxGeometry x="50" y="240" width="100" height="60" as="geometry" />
        </mxCell>
        <mxCell id="z1_XDWnO2-swt9e1ShHo-48" value="" style="edgeStyle=orthogonalEdgeStyle;rounded=0;orthogonalLoop=1;jettySize=auto;html=1;entryX=0;entryY=0.5;entryDx=0;entryDy=0;" edge="1" parent="z1_XDWnO2-swt9e1ShHo-39" source="z1_XDWnO2-swt9e1ShHo-45" target="z1_XDWnO2-swt9e1ShHo-50">
          <mxGeometry relative="1" as="geometry">
            <mxPoint x="385" y="100" as="targetPoint" />
          </mxGeometry>
        </mxCell>
        <mxCell id="z1_XDWnO2-swt9e1ShHo-49" value="Yes" style="edgeLabel;html=1;align=center;verticalAlign=middle;resizable=0;points=[];" vertex="1" connectable="0" parent="z1_XDWnO2-swt9e1ShHo-48">
          <mxGeometry x="-0.0314" y="5" relative="1" as="geometry">
            <mxPoint as="offset" />
          </mxGeometry>
        </mxCell>
        <mxCell id="z1_XDWnO2-swt9e1ShHo-64" value="" style="edgeStyle=orthogonalEdgeStyle;rounded=0;orthogonalLoop=1;jettySize=auto;html=1;" edge="1" parent="z1_XDWnO2-swt9e1ShHo-39" source="z1_XDWnO2-swt9e1ShHo-45" target="z1_XDWnO2-swt9e1ShHo-63">
          <mxGeometry relative="1" as="geometry" />
        </mxCell>
        <mxCell id="z1_XDWnO2-swt9e1ShHo-65" value="No" style="edgeLabel;html=1;align=center;verticalAlign=middle;resizable=0;points=[];" vertex="1" connectable="0" parent="z1_XDWnO2-swt9e1ShHo-64">
          <mxGeometry x="-0.2626" relative="1" as="geometry">
            <mxPoint as="offset" />
          </mxGeometry>
        </mxCell>
        <mxCell id="z1_XDWnO2-swt9e1ShHo-45" value="Registered?" style="rhombus;whiteSpace=wrap;html=1;strokeWidth=2;" vertex="1" parent="z1_XDWnO2-swt9e1ShHo-39">
          <mxGeometry x="240" y="230" width="80" height="80" as="geometry" />
        </mxCell>
        <mxCell id="z1_XDWnO2-swt9e1ShHo-53" value="" style="edgeStyle=orthogonalEdgeStyle;rounded=0;orthogonalLoop=1;jettySize=auto;html=1;" edge="1" parent="z1_XDWnO2-swt9e1ShHo-39" source="z1_XDWnO2-swt9e1ShHo-50" target="z1_XDWnO2-swt9e1ShHo-52">
          <mxGeometry relative="1" as="geometry" />
        </mxCell>
        <mxCell id="z1_XDWnO2-swt9e1ShHo-50" value="Fill out login form" style="shape=parallelogram;perimeter=parallelogramPerimeter;whiteSpace=wrap;html=1;fixedSize=1;" vertex="1" parent="z1_XDWnO2-swt9e1ShHo-39">
          <mxGeometry x="380" y="240" width="120" height="60" as="geometry" />
        </mxCell>
        <mxCell id="z1_XDWnO2-swt9e1ShHo-58" value="" style="edgeStyle=orthogonalEdgeStyle;rounded=0;orthogonalLoop=1;jettySize=auto;html=1;" edge="1" parent="z1_XDWnO2-swt9e1ShHo-39" source="z1_XDWnO2-swt9e1ShHo-52" target="z1_XDWnO2-swt9e1ShHo-57">
          <mxGeometry relative="1" as="geometry" />
        </mxCell>
        <mxCell id="z1_XDWnO2-swt9e1ShHo-52" value="Correct Credentials?" style="rhombus;whiteSpace=wrap;html=1;" vertex="1" parent="z1_XDWnO2-swt9e1ShHo-39">
          <mxGeometry x="600" y="230" width="80" height="80" as="geometry" />
        </mxCell>
        <mxCell id="z1_XDWnO2-swt9e1ShHo-57" value="Prompt: &quot;Please Try Again" style="whiteSpace=wrap;html=1;" vertex="1" parent="z1_XDWnO2-swt9e1ShHo-39">
          <mxGeometry x="580" y="140" width="120" height="60" as="geometry" />
        </mxCell>
        <mxCell id="z1_XDWnO2-swt9e1ShHo-59" style="edgeStyle=orthogonalEdgeStyle;rounded=0;orthogonalLoop=1;jettySize=auto;html=1;exitX=0;exitY=0.5;exitDx=0;exitDy=0;entryX=0.541;entryY=0.023;entryDx=0;entryDy=0;entryPerimeter=0;" edge="1" parent="z1_XDWnO2-swt9e1ShHo-39" source="z1_XDWnO2-swt9e1ShHo-57" target="z1_XDWnO2-swt9e1ShHo-50">
          <mxGeometry relative="1" as="geometry" />
        </mxCell>
        <mxCell id="z1_XDWnO2-swt9e1ShHo-69" value="" style="edgeStyle=orthogonalEdgeStyle;rounded=0;orthogonalLoop=1;jettySize=auto;html=1;" edge="1" parent="z1_XDWnO2-swt9e1ShHo-39" source="z1_XDWnO2-swt9e1ShHo-63" target="z1_XDWnO2-swt9e1ShHo-68">
          <mxGeometry relative="1" as="geometry" />
        </mxCell>
        <mxCell id="z1_XDWnO2-swt9e1ShHo-63" value="Fill out&amp;nbsp;&lt;div&gt;registration form&lt;/div&gt;" style="shape=parallelogram;perimeter=parallelogramPerimeter;whiteSpace=wrap;html=1;fixedSize=1;strokeWidth=2;" vertex="1" parent="z1_XDWnO2-swt9e1ShHo-39">
          <mxGeometry x="220" y="60" width="120" height="60" as="geometry" />
        </mxCell>
        <mxCell id="z1_XDWnO2-swt9e1ShHo-77" style="edgeStyle=orthogonalEdgeStyle;rounded=0;orthogonalLoop=1;jettySize=auto;html=1;entryX=0.5;entryY=0;entryDx=0;entryDy=0;" edge="1" parent="z1_XDWnO2-swt9e1ShHo-39" source="z1_XDWnO2-swt9e1ShHo-68" target="z1_XDWnO2-swt9e1ShHo-63">
          <mxGeometry relative="1" as="geometry">
            <Array as="points">
              <mxPoint x="500" y="40" />
              <mxPoint x="280" y="40" />
            </Array>
          </mxGeometry>
        </mxCell>
        <mxCell id="z1_XDWnO2-swt9e1ShHo-78" value="No" style="edgeLabel;html=1;align=center;verticalAlign=middle;resizable=0;points=[];" vertex="1" connectable="0" parent="z1_XDWnO2-swt9e1ShHo-77">
          <mxGeometry x="0.0203" y="-4" relative="1" as="geometry">
            <mxPoint as="offset" />
          </mxGeometry>
        </mxCell>
        <mxCell id="z1_XDWnO2-swt9e1ShHo-68" value="Correct Credentials?" style="rhombus;whiteSpace=wrap;html=1;strokeWidth=2;" vertex="1" parent="z1_XDWnO2-swt9e1ShHo-39">
          <mxGeometry x="440" y="50" width="110" height="80" as="geometry" />
        </mxCell>
        <mxCell id="z1_XDWnO2-swt9e1ShHo-54" style="edgeStyle=orthogonalEdgeStyle;rounded=0;orthogonalLoop=1;jettySize=auto;html=1;" edge="1" parent="1" source="z1_XDWnO2-swt9e1ShHo-52" target="Yik6zkkDphFywbpoYDEB-2">
          <mxGeometry relative="1" as="geometry">
            <Array as="points">
              <mxPoint x="680" y="420" />
              <mxPoint x="150" y="420" />
            </Array>
          </mxGeometry>
        </mxCell>
        <mxCell id="z1_XDWnO2-swt9e1ShHo-55" value="Yes" style="edgeLabel;html=1;align=center;verticalAlign=middle;resizable=0;points=[];" vertex="1" connectable="0" parent="z1_XDWnO2-swt9e1ShHo-54">
          <mxGeometry x="-0.904" y="2" relative="1" as="geometry">
            <mxPoint as="offset" />
          </mxGeometry>
        </mxCell>
        <mxCell id="z1_XDWnO2-swt9e1ShHo-75" style="edgeStyle=orthogonalEdgeStyle;rounded=0;orthogonalLoop=1;jettySize=auto;html=1;entryX=0.7;entryY=0;entryDx=0;entryDy=0;entryPerimeter=0;" edge="1" parent="1" source="z1_XDWnO2-swt9e1ShHo-68" target="z1_XDWnO2-swt9e1ShHo-42">
          <mxGeometry relative="1" as="geometry">
            <mxPoint x="730" y="90.00000000000023" as="targetPoint" />
          </mxGeometry>
        </mxCell>
        <mxCell id="z1_XDWnO2-swt9e1ShHo-79" value="Yes" style="edgeLabel;html=1;align=center;verticalAlign=middle;resizable=0;points=[];" vertex="1" connectable="0" parent="z1_XDWnO2-swt9e1ShHo-75">
          <mxGeometry x="-0.9447" relative="1" as="geometry">
            <mxPoint as="offset" />
          </mxGeometry>
        </mxCell>
      </root>
    </mxGraphModel>
  </diagram>
  <diagram id="f4CKzyyaEyVnS1EDv_79" name="User Story and Acceptance Criteria">
    <mxGraphModel dx="645" dy="345" grid="1" gridSize="10" guides="1" tooltips="1" connect="1" arrows="1" fold="1" page="1" pageScale="1" pageWidth="850" pageHeight="1100" math="0" shadow="0">
      <root>
        <mxCell id="0" />
        <mxCell id="1" parent="0" />
        <mxCell id="j5n8M12rlxfd2nsiEfsT-5" value="&lt;b&gt;As a customer,&amp;nbsp;&lt;/b&gt;&lt;div&gt;&lt;b&gt;I want to browse the available products on the home page&amp;nbsp;&lt;/b&gt;&lt;/div&gt;&lt;div&gt;&lt;b&gt;so that I can select the product I want to buy.&lt;/b&gt;&lt;/div&gt;" style="rounded=1;whiteSpace=wrap;html=1;fillColor=#dae8fc;strokeColor=#6c8ebf;align=left;" vertex="1" parent="1">
          <mxGeometry x="20" y="20" width="490" height="60" as="geometry" />
        </mxCell>
        <mxCell id="j5n8M12rlxfd2nsiEfsT-6" value="Scenario" style="rounded=1;whiteSpace=wrap;html=1;" vertex="1" parent="1">
          <mxGeometry x="20" y="110" width="120" height="30" as="geometry" />
        </mxCell>
        <mxCell id="j5n8M12rlxfd2nsiEfsT-7" value="Given" style="rounded=1;whiteSpace=wrap;html=1;" vertex="1" parent="1">
          <mxGeometry x="20" y="150" width="120" height="30" as="geometry" />
        </mxCell>
        <mxCell id="j5n8M12rlxfd2nsiEfsT-8" value="When" style="rounded=1;whiteSpace=wrap;html=1;" vertex="1" parent="1">
          <mxGeometry x="20" y="190" width="120" height="30" as="geometry" />
        </mxCell>
        <mxCell id="j5n8M12rlxfd2nsiEfsT-9" value="And" style="rounded=1;whiteSpace=wrap;html=1;" vertex="1" parent="1">
          <mxGeometry x="20" y="230" width="120" height="30" as="geometry" />
        </mxCell>
        <mxCell id="j5n8M12rlxfd2nsiEfsT-14" value="Browsing Products in the Home Page" style="rounded=1;whiteSpace=wrap;html=1;" vertex="1" parent="1">
          <mxGeometry x="160" y="110" width="350" height="30" as="geometry" />
        </mxCell>
        <mxCell id="j5n8M12rlxfd2nsiEfsT-15" value="User is in the Home Page" style="rounded=1;whiteSpace=wrap;html=1;" vertex="1" parent="1">
          <mxGeometry x="160" y="150" width="350" height="30" as="geometry" />
        </mxCell>
        <mxCell id="j5n8M12rlxfd2nsiEfsT-17" value="Uses the app" style="rounded=1;whiteSpace=wrap;html=1;" vertex="1" parent="1">
          <mxGeometry x="160" y="190" width="350" height="30" as="geometry" />
        </mxCell>
        <mxCell id="j5n8M12rlxfd2nsiEfsT-18" value="&lt;span style=&quot;text-align: left;&quot;&gt;The customer should be able to filter products by categories and sort them based on their preferences (price, popularity, etc.),&lt;/span&gt;" style="rounded=1;whiteSpace=wrap;html=1;" vertex="1" parent="1">
          <mxGeometry x="160" y="230" width="350" height="30" as="geometry" />
        </mxCell>
        <mxCell id="j5n8M12rlxfd2nsiEfsT-19" value="&lt;span style=&quot;text-align: left;&quot;&gt;The customer should be able to search for specific products using the search bar,&lt;/span&gt;" style="rounded=1;whiteSpace=wrap;html=1;" vertex="1" parent="1">
          <mxGeometry x="160" y="270" width="350" height="30" as="geometry" />
        </mxCell>
        <mxCell id="j5n8M12rlxfd2nsiEfsT-20" value="And" style="rounded=1;whiteSpace=wrap;html=1;" vertex="1" parent="1">
          <mxGeometry x="20" y="270" width="120" height="30" as="geometry" />
        </mxCell>
        <mxCell id="j5n8M12rlxfd2nsiEfsT-21" value="And" style="rounded=1;whiteSpace=wrap;html=1;" vertex="1" parent="1">
          <mxGeometry x="20" y="310" width="120" height="30" as="geometry" />
        </mxCell>
        <mxCell id="j5n8M12rlxfd2nsiEfsT-22" value="&lt;span style=&quot;text-align: left;&quot;&gt;the customer can click on a product to view more details on a separate product page.&lt;/span&gt;" style="rounded=1;whiteSpace=wrap;html=1;" vertex="1" parent="1">
          <mxGeometry x="160" y="310" width="350" height="30" as="geometry" />
        </mxCell>
        <mxCell id="j5n8M12rlxfd2nsiEfsT-23" value="&lt;b&gt;As a customer,&amp;nbsp;&lt;/b&gt;&lt;div&gt;&lt;b&gt;I want to view and manage my cart&amp;nbsp;&lt;/b&gt;&lt;/div&gt;&lt;div&gt;&lt;b&gt;so that I can review my selected products and proceed to checkout.&lt;/b&gt;&lt;/div&gt;" style="rounded=1;whiteSpace=wrap;html=1;fillColor=#dae8fc;strokeColor=#6c8ebf;align=left;" vertex="1" parent="1">
          <mxGeometry x="40" y="590" width="490" height="60" as="geometry" />
        </mxCell>
        <mxCell id="j5n8M12rlxfd2nsiEfsT-24" value="Scenario" style="rounded=1;whiteSpace=wrap;html=1;" vertex="1" parent="1">
          <mxGeometry x="40" y="680" width="120" height="30" as="geometry" />
        </mxCell>
        <mxCell id="j5n8M12rlxfd2nsiEfsT-25" value="Given" style="rounded=1;whiteSpace=wrap;html=1;" vertex="1" parent="1">
          <mxGeometry x="40" y="720" width="120" height="30" as="geometry" />
        </mxCell>
        <mxCell id="j5n8M12rlxfd2nsiEfsT-26" value="When" style="rounded=1;whiteSpace=wrap;html=1;" vertex="1" parent="1">
          <mxGeometry x="40" y="760" width="120" height="30" as="geometry" />
        </mxCell>
        <mxCell id="j5n8M12rlxfd2nsiEfsT-27" value="Then" style="rounded=1;whiteSpace=wrap;html=1;" vertex="1" parent="1">
          <mxGeometry x="40" y="800" width="120" height="30" as="geometry" />
        </mxCell>
        <mxCell id="j5n8M12rlxfd2nsiEfsT-28" value="&lt;h4 style=&quot;text-align: left;&quot;&gt;&lt;span style=&quot;font-weight: normal;&quot;&gt;Adding Products to the Cart&lt;/span&gt;&lt;/h4&gt;&lt;ul style=&quot;text-align: left;&quot;&gt;&lt;/ul&gt;" style="rounded=1;whiteSpace=wrap;html=1;" vertex="1" parent="1">
          <mxGeometry x="180" y="680" width="350" height="30" as="geometry" />
        </mxCell>
        <mxCell id="j5n8M12rlxfd2nsiEfsT-29" value="&lt;span style=&quot;text-align: left;&quot;&gt;That the customer is viewing a product they want to purchase&lt;/span&gt;" style="rounded=1;whiteSpace=wrap;html=1;" vertex="1" parent="1">
          <mxGeometry x="180" y="720" width="350" height="30" as="geometry" />
        </mxCell>
        <mxCell id="j5n8M12rlxfd2nsiEfsT-30" value="&lt;span style=&quot;text-align: left;&quot;&gt;&amp;nbsp;The customer clicks the &quot;Add to Cart&quot; button on either the home page or product details page.&lt;/span&gt;" style="rounded=1;whiteSpace=wrap;html=1;" vertex="1" parent="1">
          <mxGeometry x="180" y="760" width="350" height="30" as="geometry" />
        </mxCell>
        <mxCell id="j5n8M12rlxfd2nsiEfsT-31" value="&lt;span style=&quot;text-align: left;&quot;&gt;The product should be added to the cart with its quantity and price visible in the cart section.&lt;/span&gt;" style="rounded=1;whiteSpace=wrap;html=1;" vertex="1" parent="1">
          <mxGeometry x="180" y="800" width="350" height="30" as="geometry" />
        </mxCell>
        <mxCell id="j5n8M12rlxfd2nsiEfsT-32" value="&lt;span style=&quot;text-align: left;&quot;&gt;The customer should be able to view the cart&#39;s total cost updated in real-time.&lt;/span&gt;" style="rounded=1;whiteSpace=wrap;html=1;" vertex="1" parent="1">
          <mxGeometry x="180" y="840" width="350" height="30" as="geometry" />
        </mxCell>
        <mxCell id="j5n8M12rlxfd2nsiEfsT-33" value="And" style="rounded=1;whiteSpace=wrap;html=1;" vertex="1" parent="1">
          <mxGeometry x="40" y="840" width="120" height="30" as="geometry" />
        </mxCell>
        <mxCell id="j5n8M12rlxfd2nsiEfsT-34" value="And" style="rounded=1;whiteSpace=wrap;html=1;" vertex="1" parent="1">
          <mxGeometry x="40" y="880" width="120" height="30" as="geometry" />
        </mxCell>
        <mxCell id="j5n8M12rlxfd2nsiEfsT-35" value="&lt;span style=&quot;text-align: left;&quot;&gt;A confirmation message should be displayed after adding a product to the cart.&lt;/span&gt;" style="rounded=1;whiteSpace=wrap;html=1;" vertex="1" parent="1">
          <mxGeometry x="180" y="880" width="350" height="30" as="geometry" />
        </mxCell>
      </root>
    </mxGraphModel>
  </diagram>
  <diagram id="HK1pp2nihUF1tq8EpIU1" name="DFD Level 0 - Context Diagram">
    <mxGraphModel dx="1109" dy="593" grid="1" gridSize="10" guides="1" tooltips="1" connect="1" arrows="1" fold="1" page="1" pageScale="1" pageWidth="850" pageHeight="1100" math="0" shadow="0">
      <root>
        <mxCell id="0" />
        <mxCell id="1" parent="0" />
        <mxCell id="p9KZ8ZasMjs3_uWHxyed-10" style="edgeStyle=orthogonalEdgeStyle;rounded=0;orthogonalLoop=1;jettySize=auto;html=1;" edge="1" parent="1" source="p9KZ8ZasMjs3_uWHxyed-1" target="p9KZ8ZasMjs3_uWHxyed-7">
          <mxGeometry relative="1" as="geometry">
            <Array as="points">
              <mxPoint x="380" y="280" />
              <mxPoint x="180" y="280" />
            </Array>
          </mxGeometry>
        </mxCell>
        <mxCell id="p9KZ8ZasMjs3_uWHxyed-1" value="&lt;div&gt;&lt;br&gt;&lt;/div&gt;E - Commerce&amp;nbsp;&lt;div&gt;Order System&lt;/div&gt;" style="rounded=1;whiteSpace=wrap;html=1;" vertex="1" parent="1">
          <mxGeometry x="340" y="440" width="120" height="170" as="geometry" />
        </mxCell>
        <mxCell id="p9KZ8ZasMjs3_uWHxyed-3" value="" style="endArrow=none;html=1;rounded=0;entryX=1.002;entryY=0.234;entryDx=0;entryDy=0;entryPerimeter=0;exitX=0.007;exitY=0.234;exitDx=0;exitDy=0;exitPerimeter=0;" edge="1" parent="1" source="p9KZ8ZasMjs3_uWHxyed-1" target="p9KZ8ZasMjs3_uWHxyed-1">
          <mxGeometry width="50" height="50" relative="1" as="geometry">
            <mxPoint x="339.24" y="462.87" as="sourcePoint" />
            <mxPoint x="460.68000000000006" y="463.42" as="targetPoint" />
          </mxGeometry>
        </mxCell>
        <mxCell id="p9KZ8ZasMjs3_uWHxyed-26" style="edgeStyle=orthogonalEdgeStyle;rounded=0;orthogonalLoop=1;jettySize=auto;html=1;entryX=0.25;entryY=0;entryDx=0;entryDy=0;" edge="1" parent="1" source="p9KZ8ZasMjs3_uWHxyed-4" target="p9KZ8ZasMjs3_uWHxyed-7">
          <mxGeometry relative="1" as="geometry">
            <Array as="points">
              <mxPoint x="400" y="250" />
              <mxPoint x="150" y="250" />
            </Array>
          </mxGeometry>
        </mxCell>
        <mxCell id="p9KZ8ZasMjs3_uWHxyed-4" value="0" style="text;html=1;align=center;verticalAlign=middle;whiteSpace=wrap;rounded=0;" vertex="1" parent="1">
          <mxGeometry x="370" y="440" width="60" height="30" as="geometry" />
        </mxCell>
        <mxCell id="p9KZ8ZasMjs3_uWHxyed-14" style="edgeStyle=orthogonalEdgeStyle;rounded=0;orthogonalLoop=1;jettySize=auto;html=1;entryX=0;entryY=0.5;entryDx=0;entryDy=0;" edge="1" parent="1" source="p9KZ8ZasMjs3_uWHxyed-7" target="p9KZ8ZasMjs3_uWHxyed-1">
          <mxGeometry relative="1" as="geometry">
            <Array as="points">
              <mxPoint x="180" y="525" />
            </Array>
          </mxGeometry>
        </mxCell>
        <mxCell id="p9KZ8ZasMjs3_uWHxyed-7" value="Customer" style="rounded=1;whiteSpace=wrap;html=1;" vertex="1" parent="1">
          <mxGeometry x="120" y="350" width="120" height="100" as="geometry" />
        </mxCell>
        <mxCell id="p9KZ8ZasMjs3_uWHxyed-22" style="edgeStyle=orthogonalEdgeStyle;rounded=0;orthogonalLoop=1;jettySize=auto;html=1;" edge="1" parent="1" source="p9KZ8ZasMjs3_uWHxyed-8">
          <mxGeometry relative="1" as="geometry">
            <mxPoint x="460" y="520" as="targetPoint" />
            <Array as="points">
              <mxPoint x="620" y="520" />
              <mxPoint x="460" y="520" />
            </Array>
          </mxGeometry>
        </mxCell>
        <mxCell id="p9KZ8ZasMjs3_uWHxyed-24" style="edgeStyle=orthogonalEdgeStyle;rounded=0;orthogonalLoop=1;jettySize=auto;html=1;entryX=1.004;entryY=0.651;entryDx=0;entryDy=0;entryPerimeter=0;" edge="1" parent="1" target="p9KZ8ZasMjs3_uWHxyed-1">
          <mxGeometry relative="1" as="geometry">
            <mxPoint x="640.0069930069931" y="440.00000000000006" as="sourcePoint" />
            <mxPoint x="460" y="557.5" as="targetPoint" />
            <Array as="points">
              <mxPoint x="640" y="550" />
              <mxPoint x="460" y="550" />
            </Array>
          </mxGeometry>
        </mxCell>
        <mxCell id="p9KZ8ZasMjs3_uWHxyed-8" value="Vendor/Seller" style="rounded=1;whiteSpace=wrap;html=1;" vertex="1" parent="1">
          <mxGeometry x="560" y="350" width="120" height="100" as="geometry" />
        </mxCell>
        <mxCell id="p9KZ8ZasMjs3_uWHxyed-9" value="Customer Support" style="rounded=1;whiteSpace=wrap;html=1;" vertex="1" parent="1">
          <mxGeometry x="340" y="650" width="120" height="100" as="geometry" />
        </mxCell>
        <mxCell id="p9KZ8ZasMjs3_uWHxyed-13" value="Place Order" style="text;html=1;align=center;verticalAlign=middle;whiteSpace=wrap;rounded=0;" vertex="1" parent="1">
          <mxGeometry x="210" y="495" width="100" height="30" as="geometry" />
        </mxCell>
        <mxCell id="p9KZ8ZasMjs3_uWHxyed-15" style="edgeStyle=orthogonalEdgeStyle;rounded=0;orthogonalLoop=1;jettySize=auto;html=1;entryX=0.599;entryY=-0.007;entryDx=0;entryDy=0;entryPerimeter=0;" edge="1" parent="1" source="p9KZ8ZasMjs3_uWHxyed-4" target="p9KZ8ZasMjs3_uWHxyed-8">
          <mxGeometry relative="1" as="geometry">
            <mxPoint x="620" y="310" as="targetPoint" />
            <Array as="points">
              <mxPoint x="420" y="280" />
              <mxPoint x="632" y="280" />
              <mxPoint x="632" y="349" />
            </Array>
          </mxGeometry>
        </mxCell>
        <mxCell id="p9KZ8ZasMjs3_uWHxyed-16" value="Product Details" style="text;html=1;align=center;verticalAlign=middle;whiteSpace=wrap;rounded=0;" vertex="1" parent="1">
          <mxGeometry x="220" y="280" width="100" height="30" as="geometry" />
        </mxCell>
        <mxCell id="p9KZ8ZasMjs3_uWHxyed-17" value="Order Details" style="text;html=1;align=center;verticalAlign=middle;whiteSpace=wrap;rounded=0;" vertex="1" parent="1">
          <mxGeometry x="470" y="280" width="100" height="30" as="geometry" />
        </mxCell>
        <mxCell id="p9KZ8ZasMjs3_uWHxyed-18" style="edgeStyle=orthogonalEdgeStyle;rounded=0;orthogonalLoop=1;jettySize=auto;html=1;entryX=0.475;entryY=-0.008;entryDx=0;entryDy=0;entryPerimeter=0;" edge="1" parent="1" source="p9KZ8ZasMjs3_uWHxyed-1" target="p9KZ8ZasMjs3_uWHxyed-8">
          <mxGeometry relative="1" as="geometry">
            <Array as="points">
              <mxPoint x="440" y="310" />
              <mxPoint x="617" y="310" />
            </Array>
          </mxGeometry>
        </mxCell>
        <mxCell id="p9KZ8ZasMjs3_uWHxyed-19" value="Refund Confirmation Details" style="text;html=1;align=center;verticalAlign=middle;whiteSpace=wrap;rounded=0;" vertex="1" parent="1">
          <mxGeometry x="450" y="310" width="140" height="30" as="geometry" />
        </mxCell>
        <mxCell id="p9KZ8ZasMjs3_uWHxyed-20" style="edgeStyle=orthogonalEdgeStyle;rounded=0;orthogonalLoop=1;jettySize=auto;html=1;entryX=0.654;entryY=0;entryDx=0;entryDy=0;entryPerimeter=0;" edge="1" parent="1" source="p9KZ8ZasMjs3_uWHxyed-1" target="p9KZ8ZasMjs3_uWHxyed-7">
          <mxGeometry relative="1" as="geometry">
            <Array as="points">
              <mxPoint x="360" y="310" />
              <mxPoint x="199" y="310" />
            </Array>
          </mxGeometry>
        </mxCell>
        <mxCell id="p9KZ8ZasMjs3_uWHxyed-21" value="Refund Confirmation Details" style="text;html=1;align=center;verticalAlign=middle;whiteSpace=wrap;rounded=0;" vertex="1" parent="1">
          <mxGeometry x="205" y="310" width="150" height="30" as="geometry" />
        </mxCell>
        <mxCell id="p9KZ8ZasMjs3_uWHxyed-23" value="Product Details" style="text;html=1;align=center;verticalAlign=middle;whiteSpace=wrap;rounded=0;" vertex="1" parent="1">
          <mxGeometry x="490" y="495" width="100" height="30" as="geometry" />
        </mxCell>
        <mxCell id="p9KZ8ZasMjs3_uWHxyed-25" value="Store Details" style="text;html=1;align=center;verticalAlign=middle;whiteSpace=wrap;rounded=0;" vertex="1" parent="1">
          <mxGeometry x="490" y="520" width="100" height="30" as="geometry" />
        </mxCell>
        <mxCell id="p9KZ8ZasMjs3_uWHxyed-27" value="Product Arrival Date" style="text;html=1;align=center;verticalAlign=middle;whiteSpace=wrap;rounded=0;" vertex="1" parent="1">
          <mxGeometry x="220" y="250" width="120" height="30" as="geometry" />
        </mxCell>
        <mxCell id="p9KZ8ZasMjs3_uWHxyed-28" style="edgeStyle=orthogonalEdgeStyle;rounded=0;orthogonalLoop=1;jettySize=auto;html=1;entryX=0.999;entryY=0.349;entryDx=0;entryDy=0;entryPerimeter=0;" edge="1" parent="1" source="p9KZ8ZasMjs3_uWHxyed-8" target="p9KZ8ZasMjs3_uWHxyed-1">
          <mxGeometry relative="1" as="geometry">
            <Array as="points">
              <mxPoint x="600" y="499" />
            </Array>
          </mxGeometry>
        </mxCell>
        <mxCell id="p9KZ8ZasMjs3_uWHxyed-29" value="Product Arrival Date" style="text;html=1;align=center;verticalAlign=middle;whiteSpace=wrap;rounded=0;" vertex="1" parent="1">
          <mxGeometry x="475" y="470" width="115" height="30" as="geometry" />
        </mxCell>
        <mxCell id="p9KZ8ZasMjs3_uWHxyed-30" style="edgeStyle=orthogonalEdgeStyle;rounded=0;orthogonalLoop=1;jettySize=auto;html=1;exitX=0.25;exitY=1;exitDx=0;exitDy=0;entryX=-0.012;entryY=0.68;entryDx=0;entryDy=0;entryPerimeter=0;" edge="1" parent="1" source="p9KZ8ZasMjs3_uWHxyed-7" target="p9KZ8ZasMjs3_uWHxyed-1">
          <mxGeometry relative="1" as="geometry" />
        </mxCell>
        <mxCell id="p9KZ8ZasMjs3_uWHxyed-31" value="Refund Details" style="text;html=1;align=center;verticalAlign=middle;whiteSpace=wrap;rounded=0;" vertex="1" parent="1">
          <mxGeometry x="210" y="525" width="100" height="30" as="geometry" />
        </mxCell>
        <mxCell id="p9KZ8ZasMjs3_uWHxyed-32" style="edgeStyle=orthogonalEdgeStyle;rounded=0;orthogonalLoop=1;jettySize=auto;html=1;entryX=0.795;entryY=0;entryDx=0;entryDy=0;entryPerimeter=0;" edge="1" parent="1" source="p9KZ8ZasMjs3_uWHxyed-4" target="p9KZ8ZasMjs3_uWHxyed-8">
          <mxGeometry relative="1" as="geometry">
            <Array as="points">
              <mxPoint x="410" y="250" />
              <mxPoint x="655" y="250" />
            </Array>
          </mxGeometry>
        </mxCell>
        <mxCell id="p9KZ8ZasMjs3_uWHxyed-33" value="Refund Details" style="text;html=1;align=center;verticalAlign=middle;whiteSpace=wrap;rounded=0;" vertex="1" parent="1">
          <mxGeometry x="482.5" y="250" width="100" height="30" as="geometry" />
        </mxCell>
        <mxCell id="p9KZ8ZasMjs3_uWHxyed-34" style="edgeStyle=orthogonalEdgeStyle;rounded=0;orthogonalLoop=1;jettySize=auto;html=1;entryX=1;entryY=0.6;entryDx=0;entryDy=0;entryPerimeter=0;" edge="1" parent="1" source="p9KZ8ZasMjs3_uWHxyed-1" target="p9KZ8ZasMjs3_uWHxyed-9">
          <mxGeometry relative="1" as="geometry">
            <Array as="points">
              <mxPoint x="550" y="590" />
              <mxPoint x="550" y="710" />
            </Array>
          </mxGeometry>
        </mxCell>
        <mxCell id="p9KZ8ZasMjs3_uWHxyed-36" value="Refund Details" style="text;html=1;align=center;verticalAlign=middle;whiteSpace=wrap;rounded=0;" vertex="1" parent="1">
          <mxGeometry x="550" y="640" width="100" height="30" as="geometry" />
        </mxCell>
        <mxCell id="p9KZ8ZasMjs3_uWHxyed-37" style="edgeStyle=orthogonalEdgeStyle;rounded=0;orthogonalLoop=1;jettySize=auto;html=1;entryX=-0.006;entryY=0.877;entryDx=0;entryDy=0;entryPerimeter=0;" edge="1" parent="1" source="p9KZ8ZasMjs3_uWHxyed-9" target="p9KZ8ZasMjs3_uWHxyed-1">
          <mxGeometry relative="1" as="geometry">
            <Array as="points">
              <mxPoint x="280" y="700" />
              <mxPoint x="280" y="589" />
            </Array>
          </mxGeometry>
        </mxCell>
        <mxCell id="p9KZ8ZasMjs3_uWHxyed-38" value="Refund Confirmation Details" style="text;html=1;align=center;verticalAlign=middle;whiteSpace=wrap;rounded=0;" vertex="1" parent="1">
          <mxGeometry x="190" y="630" width="90" height="30" as="geometry" />
        </mxCell>
        <mxCell id="W_87c1aNsYcHYyoebiCU-1" value="&lt;b&gt;&lt;font style=&quot;font-size: 24px;&quot;&gt;Data Flow Diagram Level 0&lt;/font&gt;&lt;/b&gt;" style="text;html=1;align=center;verticalAlign=middle;whiteSpace=wrap;rounded=0;" vertex="1" parent="1">
          <mxGeometry x="280" y="190" width="270" height="30" as="geometry" />
        </mxCell>
      </root>
    </mxGraphModel>
  </diagram>
  <diagram id="YxYOWDkTk_bPsmvxEtMl" name="DFD Level 1 - Data Diagram">
    <mxGraphModel dx="679" dy="529" grid="1" gridSize="10" guides="1" tooltips="1" connect="1" arrows="1" fold="1" page="1" pageScale="1" pageWidth="850" pageHeight="1100" math="0" shadow="0">
      <root>
        <mxCell id="0" />
        <mxCell id="1" parent="0" />
        <mxCell id="ZBJiOwHkUEd6r_ovw6pn-40" value="" style="edgeStyle=orthogonalEdgeStyle;rounded=0;orthogonalLoop=1;jettySize=auto;html=1;" edge="1" parent="1" source="ZBJiOwHkUEd6r_ovw6pn-33" target="ZBJiOwHkUEd6r_ovw6pn-36">
          <mxGeometry relative="1" as="geometry" />
        </mxCell>
        <mxCell id="NooV0ruCIqB72Y4tAmnW-39" style="edgeStyle=orthogonalEdgeStyle;rounded=0;orthogonalLoop=1;jettySize=auto;html=1;entryX=0;entryY=0.5;entryDx=0;entryDy=0;" edge="1" parent="1" source="ZBJiOwHkUEd6r_ovw6pn-33" target="NooV0ruCIqB72Y4tAmnW-36">
          <mxGeometry relative="1" as="geometry">
            <Array as="points">
              <mxPoint x="97.83999999999997" y="185" />
            </Array>
          </mxGeometry>
        </mxCell>
        <mxCell id="ZBJiOwHkUEd6r_ovw6pn-33" value="Customer" style="rounded=1;whiteSpace=wrap;html=1;" vertex="1" parent="1">
          <mxGeometry x="37.83999999999997" y="290" width="120" height="110" as="geometry" />
        </mxCell>
        <mxCell id="NooV0ruCIqB72Y4tAmnW-5" value="" style="edgeStyle=orthogonalEdgeStyle;rounded=0;orthogonalLoop=1;jettySize=auto;html=1;" edge="1" parent="1" source="ZBJiOwHkUEd6r_ovw6pn-34" target="NooV0ruCIqB72Y4tAmnW-2">
          <mxGeometry relative="1" as="geometry" />
        </mxCell>
        <mxCell id="NooV0ruCIqB72Y4tAmnW-29" value="" style="edgeStyle=orthogonalEdgeStyle;rounded=0;orthogonalLoop=1;jettySize=auto;html=1;" edge="1" parent="1" source="ZBJiOwHkUEd6r_ovw6pn-34" target="NooV0ruCIqB72Y4tAmnW-28">
          <mxGeometry relative="1" as="geometry" />
        </mxCell>
        <mxCell id="ZBJiOwHkUEd6r_ovw6pn-34" value="Vendor/Seller" style="rounded=1;whiteSpace=wrap;html=1;" vertex="1" parent="1">
          <mxGeometry x="517.8399999999999" y="615" width="120" height="100" as="geometry" />
        </mxCell>
        <mxCell id="QZwVKp2WpQvDEFfBQDLp-5" value="" style="edgeStyle=orthogonalEdgeStyle;rounded=0;orthogonalLoop=1;jettySize=auto;html=1;" edge="1" parent="1" source="ZBJiOwHkUEd6r_ovw6pn-35" target="QZwVKp2WpQvDEFfBQDLp-3">
          <mxGeometry relative="1" as="geometry" />
        </mxCell>
        <mxCell id="ZBJiOwHkUEd6r_ovw6pn-35" value="Customer Support" style="rounded=1;whiteSpace=wrap;html=1;" vertex="1" parent="1">
          <mxGeometry x="717.8399999999999" y="415" width="120" height="100" as="geometry" />
        </mxCell>
        <mxCell id="ZBJiOwHkUEd6r_ovw6pn-39" value="" style="group" vertex="1" connectable="0" parent="1">
          <mxGeometry x="297.84" y="290" width="120" height="110" as="geometry" />
        </mxCell>
        <mxCell id="ZBJiOwHkUEd6r_ovw6pn-36" value="&lt;div&gt;Receive&amp;nbsp;&lt;/div&gt;&lt;div&gt;Order Details&lt;/div&gt;" style="rounded=1;whiteSpace=wrap;html=1;" vertex="1" parent="ZBJiOwHkUEd6r_ovw6pn-39">
          <mxGeometry width="120" height="110.00000000000001" as="geometry" />
        </mxCell>
        <mxCell id="ZBJiOwHkUEd6r_ovw6pn-38" value="1.0" style="text;html=1;align=center;verticalAlign=middle;whiteSpace=wrap;rounded=0;" vertex="1" parent="ZBJiOwHkUEd6r_ovw6pn-39">
          <mxGeometry x="30" width="60" height="30.000000000000004" as="geometry" />
        </mxCell>
        <mxCell id="ZBJiOwHkUEd6r_ovw6pn-37" value="" style="endArrow=none;html=1;rounded=0;entryX=1.002;entryY=0.234;entryDx=0;entryDy=0;entryPerimeter=0;exitX=0.007;exitY=0.234;exitDx=0;exitDy=0;exitPerimeter=0;" edge="1" source="ZBJiOwHkUEd6r_ovw6pn-36" target="ZBJiOwHkUEd6r_ovw6pn-36" parent="ZBJiOwHkUEd6r_ovw6pn-39">
          <mxGeometry width="50" height="50" relative="1" as="geometry">
            <mxPoint x="-0.7599999999999909" y="22.870000000000005" as="sourcePoint" />
            <mxPoint x="120.68000000000006" y="23.420000000000016" as="targetPoint" />
          </mxGeometry>
        </mxCell>
        <mxCell id="ZBJiOwHkUEd6r_ovw6pn-41" value="Place Order" style="text;html=1;align=center;verticalAlign=middle;whiteSpace=wrap;rounded=0;" vertex="1" parent="1">
          <mxGeometry x="177.83999999999997" y="316" width="100" height="30" as="geometry" />
        </mxCell>
        <mxCell id="ZBJiOwHkUEd6r_ovw6pn-52" value="" style="edgeStyle=orthogonalEdgeStyle;rounded=0;orthogonalLoop=1;jettySize=auto;html=1;" edge="1" parent="1" source="ZBJiOwHkUEd6r_ovw6pn-42" target="ZBJiOwHkUEd6r_ovw6pn-49">
          <mxGeometry relative="1" as="geometry" />
        </mxCell>
        <mxCell id="ZBJiOwHkUEd6r_ovw6pn-42" value="E1&lt;span style=&quot;white-space: pre;&quot;&gt;&#x9;&lt;/span&gt;&amp;nbsp;Order Details" style="html=1;dashed=0;whiteSpace=wrap;shape=mxgraph.dfd.dataStoreID;align=left;spacingLeft=3;points=[[0,0],[0.5,0],[1,0],[0,0.5],[1,0.5],[0,1],[0.5,1],[1,1]];" vertex="1" parent="1">
          <mxGeometry x="517.8399999999999" y="330" width="120" height="30" as="geometry" />
        </mxCell>
        <mxCell id="ZBJiOwHkUEd6r_ovw6pn-43" value="" style="edgeStyle=orthogonalEdgeStyle;rounded=0;orthogonalLoop=1;jettySize=auto;html=1;" edge="1" parent="1" source="ZBJiOwHkUEd6r_ovw6pn-36" target="ZBJiOwHkUEd6r_ovw6pn-42">
          <mxGeometry relative="1" as="geometry" />
        </mxCell>
        <mxCell id="ZBJiOwHkUEd6r_ovw6pn-45" value="Received Order Details" style="text;html=1;align=center;verticalAlign=middle;whiteSpace=wrap;rounded=0;" vertex="1" parent="1">
          <mxGeometry x="417.84" y="316" width="100" height="30" as="geometry" />
        </mxCell>
        <mxCell id="ZBJiOwHkUEd6r_ovw6pn-47" value="" style="group" vertex="1" connectable="0" parent="1">
          <mxGeometry x="517.8399999999999" y="430" width="120" height="110" as="geometry" />
        </mxCell>
        <mxCell id="ZBJiOwHkUEd6r_ovw6pn-48" value="&lt;div&gt;Receive&amp;nbsp;&lt;/div&gt;&lt;div&gt;Order Details&lt;/div&gt;" style="rounded=1;whiteSpace=wrap;html=1;" vertex="1" parent="ZBJiOwHkUEd6r_ovw6pn-47">
          <mxGeometry width="120" height="110.00000000000001" as="geometry" />
        </mxCell>
        <mxCell id="ZBJiOwHkUEd6r_ovw6pn-49" value="2.0" style="text;html=1;align=center;verticalAlign=middle;whiteSpace=wrap;rounded=0;" vertex="1" parent="ZBJiOwHkUEd6r_ovw6pn-47">
          <mxGeometry x="30" width="60" height="30.000000000000004" as="geometry" />
        </mxCell>
        <mxCell id="ZBJiOwHkUEd6r_ovw6pn-50" value="" style="endArrow=none;html=1;rounded=0;entryX=1.002;entryY=0.234;entryDx=0;entryDy=0;entryPerimeter=0;exitX=0.007;exitY=0.234;exitDx=0;exitDy=0;exitPerimeter=0;" edge="1" parent="ZBJiOwHkUEd6r_ovw6pn-47" source="ZBJiOwHkUEd6r_ovw6pn-48" target="ZBJiOwHkUEd6r_ovw6pn-48">
          <mxGeometry width="50" height="50" relative="1" as="geometry">
            <mxPoint x="-0.7599999999999909" y="22.870000000000005" as="sourcePoint" />
            <mxPoint x="120.68000000000006" y="23.420000000000016" as="targetPoint" />
          </mxGeometry>
        </mxCell>
        <mxCell id="ZBJiOwHkUEd6r_ovw6pn-53" value="Order Details" style="text;html=1;align=center;verticalAlign=middle;whiteSpace=wrap;rounded=0;" vertex="1" parent="1">
          <mxGeometry x="577.8399999999999" y="380" width="100" height="30" as="geometry" />
        </mxCell>
        <mxCell id="ZBJiOwHkUEd6r_ovw6pn-54" value="" style="edgeStyle=orthogonalEdgeStyle;rounded=0;orthogonalLoop=1;jettySize=auto;html=1;" edge="1" parent="1" source="ZBJiOwHkUEd6r_ovw6pn-48" target="ZBJiOwHkUEd6r_ovw6pn-34">
          <mxGeometry relative="1" as="geometry" />
        </mxCell>
        <mxCell id="ZBJiOwHkUEd6r_ovw6pn-55" value="Received Order Details" style="text;html=1;align=center;verticalAlign=middle;whiteSpace=wrap;rounded=0;" vertex="1" parent="1">
          <mxGeometry x="577.8399999999999" y="565" width="100" height="30" as="geometry" />
        </mxCell>
        <mxCell id="NooV0ruCIqB72Y4tAmnW-1" value="" style="group" vertex="1" connectable="0" parent="1">
          <mxGeometry x="517.8399999999999" y="775.0000000000001" width="120" height="110" as="geometry" />
        </mxCell>
        <mxCell id="NooV0ruCIqB72Y4tAmnW-2" value="Receive Product Details" style="rounded=1;whiteSpace=wrap;html=1;" vertex="1" parent="NooV0ruCIqB72Y4tAmnW-1">
          <mxGeometry width="120" height="110" as="geometry" />
        </mxCell>
        <mxCell id="NooV0ruCIqB72Y4tAmnW-3" value="3.0" style="text;html=1;align=center;verticalAlign=middle;whiteSpace=wrap;rounded=0;" vertex="1" parent="NooV0ruCIqB72Y4tAmnW-1">
          <mxGeometry x="30" width="60" height="30" as="geometry" />
        </mxCell>
        <mxCell id="NooV0ruCIqB72Y4tAmnW-4" value="" style="endArrow=none;html=1;rounded=0;entryX=1.002;entryY=0.234;entryDx=0;entryDy=0;entryPerimeter=0;exitX=0.007;exitY=0.234;exitDx=0;exitDy=0;exitPerimeter=0;" edge="1" parent="NooV0ruCIqB72Y4tAmnW-1" source="NooV0ruCIqB72Y4tAmnW-2" target="NooV0ruCIqB72Y4tAmnW-2">
          <mxGeometry width="50" height="50" relative="1" as="geometry">
            <mxPoint x="-0.7599999999999909" y="22.870000000000005" as="sourcePoint" />
            <mxPoint x="120.68000000000006" y="23.420000000000016" as="targetPoint" />
          </mxGeometry>
        </mxCell>
        <mxCell id="NooV0ruCIqB72Y4tAmnW-6" value="Product Details" style="text;html=1;align=center;verticalAlign=middle;whiteSpace=wrap;rounded=0;" vertex="1" parent="1">
          <mxGeometry x="477.84" y="730" width="100" height="30" as="geometry" />
        </mxCell>
        <mxCell id="NooV0ruCIqB72Y4tAmnW-21" value="" style="edgeStyle=orthogonalEdgeStyle;rounded=0;orthogonalLoop=1;jettySize=auto;html=1;" edge="1" parent="1" source="NooV0ruCIqB72Y4tAmnW-7" target="NooV0ruCIqB72Y4tAmnW-15">
          <mxGeometry relative="1" as="geometry" />
        </mxCell>
        <mxCell id="NooV0ruCIqB72Y4tAmnW-7" value="E2&lt;span style=&quot;white-space: pre;&quot;&gt;&#x9;&lt;/span&gt;&amp;nbsp;Product Details" style="html=1;dashed=0;whiteSpace=wrap;shape=mxgraph.dfd.dataStoreID;align=left;spacingLeft=3;points=[[0,0],[0.5,0],[1,0],[0,0.5],[1,0.5],[0,1],[0.5,1],[1,1]];" vertex="1" parent="1">
          <mxGeometry x="287.84" y="815" width="120" height="30" as="geometry" />
        </mxCell>
        <mxCell id="NooV0ruCIqB72Y4tAmnW-8" value="" style="edgeStyle=orthogonalEdgeStyle;rounded=0;orthogonalLoop=1;jettySize=auto;html=1;entryX=1;entryY=0.5;entryDx=0;entryDy=0;" edge="1" parent="1" source="NooV0ruCIqB72Y4tAmnW-2" target="NooV0ruCIqB72Y4tAmnW-7">
          <mxGeometry relative="1" as="geometry">
            <mxPoint x="427.84" y="830" as="targetPoint" />
          </mxGeometry>
        </mxCell>
        <mxCell id="NooV0ruCIqB72Y4tAmnW-9" value="Received Product Details" style="text;html=1;align=center;verticalAlign=middle;whiteSpace=wrap;rounded=0;" vertex="1" parent="1">
          <mxGeometry x="417.84" y="790" width="100" height="30" as="geometry" />
        </mxCell>
        <mxCell id="NooV0ruCIqB72Y4tAmnW-13" value="Product Details" style="text;html=1;align=center;verticalAlign=middle;whiteSpace=wrap;rounded=0;" vertex="1" parent="1">
          <mxGeometry x="177.83999999999997" y="790" width="100" height="30" as="geometry" />
        </mxCell>
        <mxCell id="NooV0ruCIqB72Y4tAmnW-14" value="" style="group" vertex="1" connectable="0" parent="1">
          <mxGeometry x="37.83999999999997" y="775.0000000000001" width="120" height="110" as="geometry" />
        </mxCell>
        <mxCell id="NooV0ruCIqB72Y4tAmnW-15" value="Receive Product Details" style="rounded=1;whiteSpace=wrap;html=1;" vertex="1" parent="NooV0ruCIqB72Y4tAmnW-14">
          <mxGeometry width="120" height="110" as="geometry" />
        </mxCell>
        <mxCell id="NooV0ruCIqB72Y4tAmnW-16" value="4.0" style="text;html=1;align=center;verticalAlign=middle;whiteSpace=wrap;rounded=0;" vertex="1" parent="NooV0ruCIqB72Y4tAmnW-14">
          <mxGeometry x="30" width="60" height="30" as="geometry" />
        </mxCell>
        <mxCell id="NooV0ruCIqB72Y4tAmnW-17" value="" style="endArrow=none;html=1;rounded=0;entryX=1.002;entryY=0.234;entryDx=0;entryDy=0;entryPerimeter=0;exitX=0.007;exitY=0.234;exitDx=0;exitDy=0;exitPerimeter=0;elbow=vertical;" edge="1" parent="NooV0ruCIqB72Y4tAmnW-14" source="NooV0ruCIqB72Y4tAmnW-15" target="NooV0ruCIqB72Y4tAmnW-15">
          <mxGeometry width="50" height="50" relative="1" as="geometry">
            <mxPoint x="-0.7599999999999909" y="22.870000000000005" as="sourcePoint" />
            <mxPoint x="120.68000000000006" y="23.420000000000016" as="targetPoint" />
          </mxGeometry>
        </mxCell>
        <mxCell id="NooV0ruCIqB72Y4tAmnW-18" style="edgeStyle=orthogonalEdgeStyle;rounded=0;orthogonalLoop=1;jettySize=auto;html=1;" edge="1" parent="1" source="NooV0ruCIqB72Y4tAmnW-16" target="ZBJiOwHkUEd6r_ovw6pn-33">
          <mxGeometry relative="1" as="geometry">
            <Array as="points">
              <mxPoint x="97.83999999999997" y="640" />
              <mxPoint x="97.83999999999997" y="640" />
            </Array>
          </mxGeometry>
        </mxCell>
        <mxCell id="NooV0ruCIqB72Y4tAmnW-19" value="Product Details" style="text;html=1;align=center;verticalAlign=middle;whiteSpace=wrap;rounded=0;" vertex="1" parent="1">
          <mxGeometry x="107.83999999999997" y="660" width="100" height="30" as="geometry" />
        </mxCell>
        <mxCell id="NooV0ruCIqB72Y4tAmnW-24" value="" style="group" vertex="1" connectable="0" parent="1">
          <mxGeometry x="297.84" y="485.0000000000001" width="120" height="110" as="geometry" />
        </mxCell>
        <mxCell id="NooV0ruCIqB72Y4tAmnW-25" value="Receive Product Arrival Details" style="rounded=1;whiteSpace=wrap;html=1;" vertex="1" parent="NooV0ruCIqB72Y4tAmnW-24">
          <mxGeometry width="120" height="110" as="geometry" />
        </mxCell>
        <mxCell id="NooV0ruCIqB72Y4tAmnW-26" value="5.0" style="text;html=1;align=center;verticalAlign=middle;whiteSpace=wrap;rounded=0;" vertex="1" parent="NooV0ruCIqB72Y4tAmnW-24">
          <mxGeometry x="30" width="60" height="30" as="geometry" />
        </mxCell>
        <mxCell id="NooV0ruCIqB72Y4tAmnW-27" value="" style="endArrow=none;html=1;rounded=0;entryX=1.002;entryY=0.234;entryDx=0;entryDy=0;entryPerimeter=0;exitX=0.007;exitY=0.234;exitDx=0;exitDy=0;exitPerimeter=0;" edge="1" parent="NooV0ruCIqB72Y4tAmnW-24" source="NooV0ruCIqB72Y4tAmnW-25" target="NooV0ruCIqB72Y4tAmnW-25">
          <mxGeometry width="50" height="50" relative="1" as="geometry">
            <mxPoint x="-0.7599999999999909" y="22.870000000000005" as="sourcePoint" />
            <mxPoint x="120.68000000000006" y="23.420000000000016" as="targetPoint" />
          </mxGeometry>
        </mxCell>
        <mxCell id="NooV0ruCIqB72Y4tAmnW-30" value="" style="edgeStyle=orthogonalEdgeStyle;rounded=0;orthogonalLoop=1;jettySize=auto;html=1;" edge="1" parent="1" source="NooV0ruCIqB72Y4tAmnW-28" target="NooV0ruCIqB72Y4tAmnW-25">
          <mxGeometry relative="1" as="geometry" />
        </mxCell>
        <mxCell id="NooV0ruCIqB72Y4tAmnW-28" value="E3&lt;span style=&quot;white-space: pre;&quot;&gt;&#x9;&lt;/span&gt;&amp;nbsp;Product Arrival Details" style="html=1;dashed=0;whiteSpace=wrap;shape=mxgraph.dfd.dataStoreID;align=left;spacingLeft=3;points=[[0,0],[0.5,0],[1,0],[0,0.5],[1,0.5],[0,1],[0.5,1],[1,1]];" vertex="1" parent="1">
          <mxGeometry x="277.84" y="650" width="160" height="30" as="geometry" />
        </mxCell>
        <mxCell id="NooV0ruCIqB72Y4tAmnW-31" style="edgeStyle=orthogonalEdgeStyle;rounded=0;orthogonalLoop=1;jettySize=auto;html=1;entryX=0.64;entryY=1.009;entryDx=0;entryDy=0;entryPerimeter=0;" edge="1" parent="1" source="NooV0ruCIqB72Y4tAmnW-26" target="ZBJiOwHkUEd6r_ovw6pn-33">
          <mxGeometry relative="1" as="geometry">
            <Array as="points">
              <mxPoint x="357.84" y="460" />
              <mxPoint x="114.83999999999997" y="460" />
            </Array>
          </mxGeometry>
        </mxCell>
        <mxCell id="NooV0ruCIqB72Y4tAmnW-32" value="Product Arrival Details" style="text;html=1;align=center;verticalAlign=middle;whiteSpace=wrap;rounded=0;" vertex="1" parent="1">
          <mxGeometry x="177.83999999999997" y="470" width="100" height="30" as="geometry" />
        </mxCell>
        <mxCell id="NooV0ruCIqB72Y4tAmnW-35" value="" style="group" vertex="1" connectable="0" parent="1">
          <mxGeometry x="297.84" y="130" width="120" height="110" as="geometry" />
        </mxCell>
        <mxCell id="NooV0ruCIqB72Y4tAmnW-41" style="edgeStyle=orthogonalEdgeStyle;rounded=0;orthogonalLoop=1;jettySize=auto;html=1;" edge="1" parent="NooV0ruCIqB72Y4tAmnW-35" source="NooV0ruCIqB72Y4tAmnW-36">
          <mxGeometry relative="1" as="geometry">
            <mxPoint x="290" y="55" as="targetPoint" />
          </mxGeometry>
        </mxCell>
        <mxCell id="NooV0ruCIqB72Y4tAmnW-36" value="&lt;div&gt;Receives Refund Details&lt;/div&gt;" style="rounded=1;whiteSpace=wrap;html=1;" vertex="1" parent="NooV0ruCIqB72Y4tAmnW-35">
          <mxGeometry width="120" height="110.00000000000001" as="geometry" />
        </mxCell>
        <mxCell id="NooV0ruCIqB72Y4tAmnW-37" value="6.0" style="text;html=1;align=center;verticalAlign=middle;whiteSpace=wrap;rounded=0;" vertex="1" parent="NooV0ruCIqB72Y4tAmnW-35">
          <mxGeometry x="30" width="60" height="30.000000000000004" as="geometry" />
        </mxCell>
        <mxCell id="NooV0ruCIqB72Y4tAmnW-38" value="" style="endArrow=none;html=1;rounded=0;entryX=1.002;entryY=0.234;entryDx=0;entryDy=0;entryPerimeter=0;exitX=0.007;exitY=0.234;exitDx=0;exitDy=0;exitPerimeter=0;" edge="1" parent="NooV0ruCIqB72Y4tAmnW-35" source="NooV0ruCIqB72Y4tAmnW-36" target="NooV0ruCIqB72Y4tAmnW-36">
          <mxGeometry width="50" height="50" relative="1" as="geometry">
            <mxPoint x="-0.7599999999999909" y="22.870000000000005" as="sourcePoint" />
            <mxPoint x="120.68000000000006" y="23.420000000000016" as="targetPoint" />
          </mxGeometry>
        </mxCell>
        <mxCell id="NooV0ruCIqB72Y4tAmnW-40" value="Refund Details" style="text;html=1;align=center;verticalAlign=middle;whiteSpace=wrap;rounded=0;" vertex="1" parent="1">
          <mxGeometry x="147.83999999999997" y="190" width="100" height="30" as="geometry" />
        </mxCell>
        <mxCell id="NooV0ruCIqB72Y4tAmnW-42" value="Received Refund Details" style="text;html=1;align=center;verticalAlign=middle;whiteSpace=wrap;rounded=0;" vertex="1" parent="1">
          <mxGeometry x="427.84" y="190" width="100" height="30" as="geometry" />
        </mxCell>
        <mxCell id="NooV0ruCIqB72Y4tAmnW-49" style="edgeStyle=orthogonalEdgeStyle;rounded=0;orthogonalLoop=1;jettySize=auto;html=1;entryX=0.5;entryY=0;entryDx=0;entryDy=0;" edge="1" parent="1" source="NooV0ruCIqB72Y4tAmnW-43" target="NooV0ruCIqB72Y4tAmnW-47">
          <mxGeometry relative="1" as="geometry" />
        </mxCell>
        <mxCell id="NooV0ruCIqB72Y4tAmnW-43" value="E4&lt;span style=&quot;white-space: pre;&quot;&gt;&#x9;&lt;/span&gt;&amp;nbsp;Refund Details" style="html=1;dashed=0;whiteSpace=wrap;shape=mxgraph.dfd.dataStoreID;align=left;spacingLeft=3;points=[[0,0],[0.5,0],[1,0],[0,0.5],[1,0.5],[0,1],[0.5,1],[1,1]];" vertex="1" parent="1">
          <mxGeometry x="547.8399999999999" y="170" width="120" height="30" as="geometry" />
        </mxCell>
        <mxCell id="NooV0ruCIqB72Y4tAmnW-44" value="" style="group" vertex="1" connectable="0" parent="1">
          <mxGeometry x="717.8399999999999" y="236" width="120" height="110" as="geometry" />
        </mxCell>
        <mxCell id="NooV0ruCIqB72Y4tAmnW-46" value="&lt;div&gt;Receives Refund Details&lt;/div&gt;" style="rounded=1;whiteSpace=wrap;html=1;" vertex="1" parent="NooV0ruCIqB72Y4tAmnW-44">
          <mxGeometry width="120" height="110.00000000000001" as="geometry" />
        </mxCell>
        <mxCell id="NooV0ruCIqB72Y4tAmnW-47" value="7.0" style="text;html=1;align=center;verticalAlign=middle;whiteSpace=wrap;rounded=0;" vertex="1" parent="NooV0ruCIqB72Y4tAmnW-44">
          <mxGeometry x="30" width="60" height="30.000000000000004" as="geometry" />
        </mxCell>
        <mxCell id="NooV0ruCIqB72Y4tAmnW-48" value="" style="endArrow=none;html=1;rounded=0;entryX=1.002;entryY=0.234;entryDx=0;entryDy=0;entryPerimeter=0;exitX=0.007;exitY=0.234;exitDx=0;exitDy=0;exitPerimeter=0;" edge="1" parent="NooV0ruCIqB72Y4tAmnW-44" source="NooV0ruCIqB72Y4tAmnW-46" target="NooV0ruCIqB72Y4tAmnW-46">
          <mxGeometry width="50" height="50" relative="1" as="geometry">
            <mxPoint x="-0.7599999999999909" y="22.870000000000005" as="sourcePoint" />
            <mxPoint x="120.68000000000006" y="23.420000000000016" as="targetPoint" />
          </mxGeometry>
        </mxCell>
        <mxCell id="NooV0ruCIqB72Y4tAmnW-50" value="" style="edgeStyle=orthogonalEdgeStyle;rounded=0;orthogonalLoop=1;jettySize=auto;html=1;" edge="1" parent="1" source="NooV0ruCIqB72Y4tAmnW-46" target="ZBJiOwHkUEd6r_ovw6pn-35">
          <mxGeometry relative="1" as="geometry" />
        </mxCell>
        <mxCell id="NooV0ruCIqB72Y4tAmnW-51" value="Refund&amp;nbsp;&lt;div&gt;Details&lt;/div&gt;" style="text;html=1;align=center;verticalAlign=middle;whiteSpace=wrap;rounded=0;" vertex="1" parent="1">
          <mxGeometry x="697.8399999999999" y="360" width="100" height="30" as="geometry" />
        </mxCell>
        <mxCell id="QZwVKp2WpQvDEFfBQDLp-1" value="" style="group" vertex="1" connectable="0" parent="1">
          <mxGeometry x="717.8399999999999" y="610" width="120" height="110" as="geometry" />
        </mxCell>
        <mxCell id="QZwVKp2WpQvDEFfBQDLp-2" value="&lt;div&gt;Checks the validity of the refund detail&lt;/div&gt;" style="rounded=1;whiteSpace=wrap;html=1;" vertex="1" parent="QZwVKp2WpQvDEFfBQDLp-1">
          <mxGeometry width="120" height="110.00000000000001" as="geometry" />
        </mxCell>
        <mxCell id="QZwVKp2WpQvDEFfBQDLp-3" value="8.0" style="text;html=1;align=center;verticalAlign=middle;whiteSpace=wrap;rounded=0;" vertex="1" parent="QZwVKp2WpQvDEFfBQDLp-1">
          <mxGeometry x="30" width="60" height="30.000000000000004" as="geometry" />
        </mxCell>
        <mxCell id="QZwVKp2WpQvDEFfBQDLp-4" value="" style="endArrow=none;html=1;rounded=0;entryX=1.002;entryY=0.234;entryDx=0;entryDy=0;entryPerimeter=0;exitX=0.007;exitY=0.234;exitDx=0;exitDy=0;exitPerimeter=0;" edge="1" parent="QZwVKp2WpQvDEFfBQDLp-1" source="QZwVKp2WpQvDEFfBQDLp-2" target="QZwVKp2WpQvDEFfBQDLp-2">
          <mxGeometry width="50" height="50" relative="1" as="geometry">
            <mxPoint x="-0.7599999999999909" y="22.870000000000005" as="sourcePoint" />
            <mxPoint x="120.68000000000006" y="23.420000000000016" as="targetPoint" />
          </mxGeometry>
        </mxCell>
        <mxCell id="QZwVKp2WpQvDEFfBQDLp-6" style="edgeStyle=orthogonalEdgeStyle;rounded=0;orthogonalLoop=1;jettySize=auto;html=1;entryX=1;entryY=0.5;entryDx=0;entryDy=0;" edge="1" parent="1" source="QZwVKp2WpQvDEFfBQDLp-2" target="ZBJiOwHkUEd6r_ovw6pn-34">
          <mxGeometry relative="1" as="geometry" />
        </mxCell>
        <mxCell id="QZwVKp2WpQvDEFfBQDLp-7" value="Refund Confirmation Details" style="text;html=1;align=center;verticalAlign=middle;whiteSpace=wrap;rounded=0;" vertex="1" parent="1">
          <mxGeometry x="627.8399999999999" y="680" width="100" height="30" as="geometry" />
        </mxCell>
        <mxCell id="a4ZmJE62NnzCZdip7Vz4-1" style="edgeStyle=orthogonalEdgeStyle;rounded=0;orthogonalLoop=1;jettySize=auto;html=1;entryX=0;entryY=0.5;entryDx=0;entryDy=0;" edge="1" parent="1" source="QZwVKp2WpQvDEFfBQDLp-2" target="ZBJiOwHkUEd6r_ovw6pn-33">
          <mxGeometry relative="1" as="geometry">
            <Array as="points">
              <mxPoint x="777.93" y="950" />
              <mxPoint x="12.93" y="950" />
              <mxPoint x="12.93" y="345" />
            </Array>
          </mxGeometry>
        </mxCell>
        <mxCell id="a4ZmJE62NnzCZdip7Vz4-2" value="Refund Confirmation Details" style="text;html=1;align=center;verticalAlign=middle;whiteSpace=wrap;rounded=0;" vertex="1" parent="1">
          <mxGeometry x="682.93" y="775" width="100" height="30" as="geometry" />
        </mxCell>
        <mxCell id="Ojl1HArpDXQL2OwAsAAs-1" style="edgeStyle=orthogonalEdgeStyle;rounded=0;orthogonalLoop=1;jettySize=auto;html=1;entryX=1;entryY=0.25;entryDx=0;entryDy=0;exitX=-0.006;exitY=0.556;exitDx=0;exitDy=0;exitPerimeter=0;" edge="1" parent="1" source="NooV0ruCIqB72Y4tAmnW-46" target="ZBJiOwHkUEd6r_ovw6pn-34">
          <mxGeometry relative="1" as="geometry">
            <Array as="points">
              <mxPoint x="716.8399999999999" y="291" />
              <mxPoint x="687.8399999999999" y="291" />
              <mxPoint x="687.8399999999999" y="640" />
            </Array>
          </mxGeometry>
        </mxCell>
        <mxCell id="Ojl1HArpDXQL2OwAsAAs-2" value="Refund&amp;nbsp;&lt;div&gt;Details&lt;/div&gt;" style="text;html=1;align=center;verticalAlign=middle;whiteSpace=wrap;rounded=0;" vertex="1" parent="1">
          <mxGeometry x="667.8399999999999" y="535" width="100" height="30" as="geometry" />
        </mxCell>
        <mxCell id="Ojl1HArpDXQL2OwAsAAs-4" value="&lt;b&gt;&lt;font style=&quot;font-size: 24px;&quot;&gt;Data Flow Diagram Level 1&lt;/font&gt;&lt;/b&gt;" style="text;html=1;align=center;verticalAlign=middle;whiteSpace=wrap;rounded=0;" vertex="1" parent="1">
          <mxGeometry x="290" y="50" width="270" height="30" as="geometry" />
        </mxCell>
      </root>
    </mxGraphModel>
  </diagram>
</mxfile>
